<?xml version="1.0" encoding="UTF-8"?>
<svg version="1.1" xmlns="http://www.w3.org/2000/svg" width="1024" height="1024">
<path d="M0 0 C3.53407387 0.65243459 6.16599846 1.44321714 9.2734375 3.265625 C10.4948645 3.97380371 10.4948645 3.97380371 11.7409668 4.69628906 C12.61019775 5.20901367 13.47942871 5.72173828 14.375 6.25 C16.24318306 7.33386183 18.11168499 8.41717421 19.98046875 9.5 C21.44492432 10.35271484 21.44492432 10.35271484 22.93896484 11.22265625 C28.17185422 14.26105429 33.42733733 17.25913876 38.6875 20.25 C39.68507324 20.82266602 40.68264648 21.39533203 41.71044922 21.98535156 C42.63486816 22.5109668 43.55928711 23.03658203 44.51171875 23.578125 C45.33115967 24.04637695 46.15060059 24.51462891 46.99487305 24.99707031 C48.92445997 26.14911476 48.92445997 26.14911476 51 26 C51 26.66 51 27.32 51 28 C52.07169434 28.40508789 52.07169434 28.40508789 53.16503906 28.81835938 C56.02863414 30.011935 58.65468893 31.38826523 61.359375 32.90625 C62.38490479 33.48068848 63.41043457 34.05512695 64.46704102 34.64697266 C65.55041748 35.25847168 66.63379395 35.8699707 67.75 36.5 C68.86366943 37.12567871 69.97733887 37.75135742 71.12475586 38.39599609 C78.30870687 42.44444481 85.45398929 46.55224992 92.52050781 50.80273438 C95.59608114 52.64193692 98.6704232 54.34819905 101.90234375 55.8984375 C104.83746001 57.3358222 107.50045354 58.95250058 110.1953125 60.80078125 C115.86406575 64.66848645 121.85800754 67.89864288 127.875 71.1875 C130.26839578 72.50255127 132.65996692 73.82088705 135.05078125 75.140625 C135.64126755 75.46634995 136.23175385 75.79207489 136.84013367 76.12767029 C143.10330179 79.59271169 149.28660377 83.19267655 155.43896484 86.8503418 C158.97869053 89.17013325 158.97869053 89.17013325 163 90 C163 90.66 163 91.32 163 92 C164.05574219 92.39372803 164.05574219 92.39372803 165.1328125 92.79541016 C168.20276123 94.08518596 170.98943413 95.61175907 173.875 97.2734375 C175.01598145 97.92828125 176.15696289 98.583125 177.33251953 99.2578125 C177.93147034 99.60360352 178.53042114 99.94939453 179.14752197 100.30566406 C181.0156497 101.38403373 182.88615354 102.45817027 184.75732422 103.53125 C190.66001008 106.91813507 196.5541042 110.31975456 202.4453125 113.7265625 C203.41082031 114.2829541 204.37632812 114.8393457 205.37109375 115.41259766 C207.17542735 116.45264882 208.97759977 117.49646043 210.77734375 118.54443359 C211.57527344 119.00414551 212.37320313 119.46385742 213.1953125 119.9375 C213.88641113 120.33839844 214.57750977 120.73929687 215.28955078 121.15234375 C216.98050786 122.14801303 216.98050786 122.14801303 219 122 C219 122.66 219 123.32 219 124 C219.71430176 124.26772217 220.42860352 124.53544434 221.16455078 124.8112793 C224.05703219 126.02390991 226.65944289 127.43862534 229.3671875 129.01953125 C230.40568848 129.62289307 231.44418945 130.22625488 232.51416016 130.84790039 C233.6232373 131.49621826 234.73231445 132.14453613 235.875 132.8125 C238.23330817 134.18413188 240.59314225 135.55312681 242.953125 136.921875 C243.54819855 137.26734879 244.14327209 137.61282257 244.75637817 137.96876526 C250.35288118 141.21391959 255.98509901 144.39359077 261.625 147.5625 C269.52559916 152.00611696 277.36975998 156.53727686 285.1875 161.125 C293.46332493 165.98013277 301.7984772 170.6998012 310.22680664 175.28491211 C315.85826049 178.35161418 321.39526746 181.53651446 326.8828125 184.85546875 C328.89210476 186.15851699 328.89210476 186.15851699 331 186 C331 186.66 331 187.32 331 188 C331.69891357 188.26119629 332.39782715 188.52239258 333.11791992 188.79150391 C336.25899292 190.10859932 339.14413923 191.6669724 342.11328125 193.3359375 C342.68652634 193.65656158 343.25977142 193.97718567 343.85038757 194.30752563 C345.67270449 195.327171 347.49276717 196.35075107 349.3125 197.375 C358.19898084 202.43476025 358.19898084 202.43476025 367.29296875 207.1015625 C370.10155336 208.46914731 372.63168916 210.04591903 375.2109375 211.80859375 C380.79904395 215.62040386 386.69573632 218.81703068 392.625 222.0625 C394.43538709 223.05994779 396.24485875 224.05904183 398.054245 225.05830383 C399.27579835 225.73292336 400.49756969 226.40714835 401.71955872 227.08097839 C407.31148923 230.16592286 412.87945013 233.29201024 418.4375 236.4375 C419.81856934 237.21891357 419.81856934 237.21891357 421.22753906 238.01611328 C429.38297403 242.63808752 437.51718532 247.29714805 445.65213013 251.95504761 C454.20128484 256.84874632 462.77560681 261.69491647 471.375 266.5 C488.8608805 276.27184 488.8608805 276.27184 497 281 C497.66837891 281.38559082 498.33675781 281.77118164 499.02539062 282.16845703 C501.14687807 283.39569602 503.2616447 284.63381914 505.375 285.875 C506.36814209 286.447948 506.36814209 286.447948 507.38134766 287.0324707 C508.95543649 287.96570752 510.4833045 288.97612433 512 290 C512 290.66 512 291.32 512 292 C510.3137207 293.21411133 510.3137207 293.21411133 507.92578125 294.58203125 C507.04196777 295.09475586 506.1581543 295.60748047 505.24755859 296.13574219 C503.79470459 296.9657373 503.79470459 296.9657373 502.3125 297.8125 C500.26845468 298.99945006 498.22551017 300.18829756 496.18359375 301.37890625 C495.14315918 301.98492676 494.10272461 302.59094727 493.03076172 303.21533203 C488.60136321 305.82358909 484.23511408 308.52798005 479.875 311.25 C471.32457756 316.57570588 462.73485416 321.83365759 454.125 327.0625 C453.52040955 327.43016479 452.91581909 327.79782959 452.29290771 328.17663574 C449.48133462 329.88607678 446.66679107 331.58961029 443.84472656 333.28173828 C442.15083524 334.30487655 440.46640202 335.34438304 438.80371094 336.41748047 C434.6073927 339.06082163 434.6073927 339.06082163 431.65942383 338.765625 C428.65869316 337.90174073 426.1985588 336.68756819 423.45703125 335.19140625 C421.86000366 334.3257605 421.86000366 334.3257605 420.23071289 333.44262695 C419.10270264 332.82218506 417.97469238 332.20174316 416.8125 331.5625 C415.63494275 330.92034279 414.45712462 330.27866376 413.27905273 329.63745117 C409.84788409 327.76703903 406.4236493 325.88414214 403 324 C402.11892578 323.51724609 401.23785156 323.03449219 400.33007812 322.53710938 C391.0779366 317.46629721 381.91112535 312.25756048 372.80493164 306.92895508 C366.93250908 303.50137252 360.98062138 300.23450928 355 297 C342.93382296 290.45855355 330.91165761 283.85290252 318.9753418 277.0769043 C310.2113294 272.1059287 301.40595401 267.21127377 292.59326172 262.32739258 C286.35859777 258.87097446 280.13879571 255.39086241 273.9375 251.875 C268.38028815 248.72900182 262.75585657 245.76676367 257 243 C255 242 255 242 253.1796875 240.61206055 C250.90661062 238.93093077 248.59871387 237.57476382 246.125 236.20703125 C245.15449707 235.66763916 244.18399414 235.12824707 243.18408203 234.57250977 C242.13333496 233.99170654 241.08258789 233.41090332 240 232.8125 C237.7259496 231.54797657 235.45253516 230.28230895 233.1796875 229.015625 C232.5909787 228.68760391 232.0022699 228.35958282 231.39572144 228.0216217 C225.52800163 224.74685257 219.69741798 221.40877836 213.86947632 218.0637207 C202.89559879 211.76539882 191.87198448 205.56706421 180.80224609 199.43823242 C170.77104545 193.88254697 160.78557608 188.24853843 150.81054688 182.59277344 C146.04281917 179.89084019 141.27119855 177.19579791 136.5 174.5 C134.59242669 173.42191256 132.68487461 172.34378754 130.77734375 171.265625 C129.82972168 170.73001953 128.88209961 170.19441406 127.90576172 169.64257812 C124.9383145 167.96513022 121.97108717 166.2872939 119.00390625 164.609375 C108.01004951 158.39295809 97.01155876 152.18501196 86 146 C84.34480115 149.31039769 84.85280067 153.00702972 84.85473633 156.64672852 C84.85142303 157.56524188 84.84810974 158.48375525 84.84469604 159.43010235 C84.83510859 162.57971531 84.83334593 165.72927952 84.83203125 168.87890625 C84.82810016 171.196269 84.82400005 173.51363147 84.81974792 175.83099365 C84.81022593 182.35007381 84.80952677 188.86913391 84.81152344 195.38821793 C84.8125657 198.86236123 84.81194785 202.33650195 84.81088054 205.81064516 C84.79044377 280.40072188 85.55648965 354.98773683 86.2527138 429.57381797 C86.28811684 433.37189908 86.32333427 437.16998188 86.35849285 440.96806526 C86.3815118 443.452282 86.40453631 445.93649869 86.42756653 448.42071533 C86.43880851 449.63392688 86.4500505 450.84713843 86.46163315 452.09711397 C86.51634339 457.98019929 86.57196028 463.86327345 86.62965965 469.74633026 C86.6405143 470.85675355 86.65136896 471.96717685 86.66255254 473.11124933 C86.68413051 475.31060054 86.70591409 477.50994975 86.72791082 479.70929682 C86.77923056 484.94511003 86.82382012 490.18080147 86.85233784 495.41679192 C86.8637455 497.41088864 86.87536582 499.40498417 86.88720703 501.39907837 C86.89290748 502.36634334 86.89860793 503.33360831 86.90448111 504.33018434 C86.94861925 510.13182078 87.0700238 515.92601342 87.25561237 521.72481447 C87.36837186 525.3793385 87.44812667 529.03418986 87.52329826 532.68965757 C87.56704915 534.37859398 87.626856 536.06720452 87.70410347 537.75494063 C88.28226648 550.48427803 88.28226648 550.48427803 85.0524931 554.3020792 C82.74660651 555.86774506 80.58173344 556.96859543 78 558 C77.08130127 558.55051025 76.16260254 559.10102051 75.21606445 559.66821289 C74.439646 560.0986792 73.66322754 560.52914551 72.86328125 560.97265625 C71.96778564 561.47289307 71.07229004 561.97312988 70.1496582 562.48852539 C69.213396 563.00793701 68.27713379 563.52734863 67.3125 564.0625 C59.42817831 568.47876451 51.58810274 572.95730878 43.8125 577.5625 C42.91926025 578.09133789 42.02602051 578.62017578 41.10571289 579.16503906 C36.47240259 581.91623754 31.85354505 584.69008809 27.24609375 587.484375 C26.32272217 588.04310303 25.39935059 588.60183105 24.44799805 589.17749023 C22.68521299 590.24575298 20.92484345 591.31801466 19.16723633 592.39477539 C17.99390747 593.10621704 17.99390747 593.10621704 16.796875 593.83203125 C16.10948242 594.25202393 15.42208984 594.6720166 14.71386719 595.10473633 C13 596 13 596 11 596 C10.29725853 565.86269277 9.70643994 535.72450179 9.18432617 505.58355713 C8.9710043 493.27309868 8.75366728 480.96271108 8.53515625 468.65234375 C8.51294636 467.40039215 8.49073647 466.14844055 8.46785355 464.85855103 C8.16237882 447.67745462 7.84024677 430.4967712 7.49609375 413.31640625 C7.46536207 411.78170118 7.46536207 411.78170118 7.43400955 410.21599197 C7.33102314 405.07835625 7.22770378 399.94072727 7.12426758 394.80310059 C6.32796213 355.2325587 5.63476603 315.66123848 5.00304031 276.08773804 C4.23475936 227.99198464 3.37687594 179.89815788 2.48706579 131.80451155 C2.43792539 129.14799654 2.38882659 126.49148077 2.33974075 123.83496475 C1.57693344 82.55631261 0.8022346 41.27790686 0 0 Z M84 144 C84 144.66 84 145.32 84 146 C84.66 145.67 85.32 145.34 86 145 C85.34 144.67 84.68 144.34 84 144 Z " fill="#FEFEFE" transform="translate(272,89)"/>
<path d="M0 0 C6.24263007 0.40109155 10.80297555 3.46847531 16.0625 6.5625 C18.1188667 7.74900036 20.17620625 8.93381583 22.234375 10.1171875 C23.32685547 10.7472168 24.41933594 11.37724609 25.54492188 12.02636719 C31.59575805 15.48276626 37.70554979 18.83159162 43.8125 22.1875 C45.05208412 22.86988657 46.29158667 23.55242133 47.53100586 24.23510742 C49.91551142 25.54850201 52.30020353 26.86155657 54.68505859 28.17431641 C59.3350169 30.73525235 63.98182129 33.30179435 68.625 35.875 C69.3466333 36.27356201 70.0682666 36.67212402 70.81176758 37.08276367 C73.61509032 38.63793457 76.33075263 40.22050176 79 42 C79.50183105 44.56242752 79.50183105 44.56242752 79.66992188 47.77764893 C79.73429443 48.95350807 79.79866699 50.12936722 79.86499023 51.34085846 C80.07675905 57.08038454 80.21581771 62.81454044 80.28125 68.55761719 C80.2993167 69.85208078 80.3173834 71.14654438 80.33599758 72.48023415 C80.38518205 76.01298023 80.42928575 79.54577297 80.47240901 83.07859755 C80.51936455 86.85375797 80.57102976 90.62885439 80.62208557 94.40396118 C80.71968655 101.67607932 80.81286808 108.94824745 80.90448874 116.22044313 C80.97852644 122.08605315 81.05460529 127.95163371 81.13204956 133.81719971 C81.14304532 134.65003632 81.15404108 135.48287294 81.16537005 136.34094703 C81.18760454 138.02453123 81.20984123 139.70811541 81.2320801 141.39169955 C81.72000951 178.38564209 82.16605445 215.37995911 82.5625 252.375 C82.81309514 275.7512036 83.08437395 299.12605171 83.5 322.5 C83.52708542 324.12720978 83.52708542 324.12720978 83.55471802 325.78729248 C83.60482057 328.74371866 83.66065534 331.69997143 83.71875 334.65625 C83.73904518 335.90065353 83.73904518 335.90065353 83.75975037 337.17019653 C83.83972946 340.87844926 84.03237977 344.50788845 84.50474548 348.18797302 C85.04927485 352.96226533 85.13437476 357.66590328 85.11352539 362.46704102 C85.11367142 363.36568375 85.11381744 364.26432648 85.1139679 365.19020081 C85.11327733 368.12812812 85.10552543 371.06599016 85.09765625 374.00390625 C85.09578902 376.0537055 85.09436656 378.1035052 85.09336853 380.15330505 C85.08956733 385.52411145 85.07975773 390.89489041 85.06866455 396.26568604 C85.05839868 401.75589629 85.05385986 407.24611102 85.04882812 412.73632812 C85.03813313 423.49089741 85.02108577 434.24544642 85 445 C85.79470703 444.53411469 86.58941406 444.06822937 87.40820312 443.58822632 C91.10545822 441.42077876 94.80272458 439.2533504 98.5 437.0859375 C99.16515625 436.69600994 99.8303125 436.30608238 100.515625 435.90433884 C108.00999263 431.51102282 115.50448918 427.11792793 123 422.7265625 C124.20443098 422.02083998 125.40885822 421.31511108 126.61328125 420.609375 C128.35069286 419.59137604 130.08811256 418.57339088 131.82568359 417.55566406 C133.61309642 416.50870346 135.40031657 415.46141462 137.1875 414.4140625 C138.19167969 413.8257666 139.19585937 413.2374707 140.23046875 412.63134766 C141.14441406 412.09300293 142.05835938 411.5546582 143 411 C144.35544922 410.21375244 144.35544922 410.21375244 145.73828125 409.41162109 C148.08570343 408.06460643 148.08570343 408.06460643 150 406 C152.08645994 404.92330519 154.19442808 403.88809335 156.3125 402.875 C162.31298091 399.94804904 167.95510652 396.64766245 173.609375 393.08984375 C177.23180272 390.85712621 180.908866 388.75858503 184.625 386.6875 C185.96355892 385.93753079 187.30210012 385.18752996 188.640625 384.4375 C190.93612033 383.1525332 193.2331611 381.87056593 195.53320312 380.59375 C198.15313775 379.13542962 200.76451638 377.66265787 203.375 376.1875 C204.20209473 375.73141357 205.02918945 375.27532715 205.88134766 374.80541992 C206.6501123 374.36818604 207.41887695 373.93095215 208.2109375 373.48046875 C208.89462402 373.09785889 209.57831055 372.71524902 210.28271484 372.32104492 C212.29910554 370.769909 213.03696049 369.32811567 214 367 C214.99 367.33 215.98 367.66 217 368 C219.29978034 366.92656114 221.38920236 365.79426338 223.5625 364.5 C224.25013428 364.10200195 224.93776855 363.70400391 225.64624023 363.29394531 C227.21583695 362.38443718 228.78279623 361.47036829 230.34765625 360.55273438 C234.30448128 358.23633091 238.27835202 355.94968616 242.25048828 353.65966797 C244.48130682 352.37340358 246.71143698 351.08594465 248.94091797 349.79736328 C258.98150926 343.99654993 269.06965391 338.28277158 279.17333984 332.59277344 C283.95174379 329.9002266 288.72566416 327.19975157 293.5 324.5 C299.2950127 321.22324923 305.09087353 317.94804513 310.890625 314.6796875 C320.50088684 309.26103363 330.08883377 303.81058452 339.61987305 298.25366211 C347.65073496 293.58819474 355.77108018 289.08262436 363.90185547 284.59399414 C364.92553223 284.02543701 365.94920898 283.45687988 367.00390625 282.87109375 C368.37784546 282.11203735 368.37784546 282.11203735 369.77954102 281.33764648 C372.09829544 280.06224561 372.09829544 280.06224561 374 278 C376.21627055 276.85737608 378.43918849 275.76348552 380.6875 274.6875 C387.60306983 271.30526466 394.3154405 267.62915866 401 263.8125 C409.33013991 259.06102236 417.69686901 254.38822996 426.125 249.8125 C427.13820313 249.25989502 428.15140625 248.70729004 429.1953125 248.13793945 C430.1440625 247.62448975 431.0928125 247.11104004 432.0703125 246.58203125 C433.31965576 245.90491089 433.31965576 245.90491089 434.59423828 245.21411133 C435.38813965 244.81345459 436.18204102 244.41279785 437 244 C437.80598633 243.56357178 438.61197266 243.12714355 439.44238281 242.67749023 C443.06418663 241.71810635 444.5969759 242.81659766 447.8515625 244.578125 C448.94984375 245.16207031 450.048125 245.74601563 451.1796875 246.34765625 C452.88511719 247.28931641 452.88511719 247.28931641 454.625 248.25 C455.7696875 248.86230469 456.914375 249.47460938 458.09375 250.10546875 C466.17755034 254.45170023 466.17755034 254.45170023 470 257 C470.66 256.67 471.32 256.34 472 256 C472 256.99 472 257.98 472 259 C472.78375 259.21914063 473.5675 259.43828125 474.375 259.6640625 C479.19497702 261.44039024 483.51941282 263.87866155 488 266.375 C489.95043843 267.45067027 491.90096194 268.52618626 493.8515625 269.6015625 C495.35831543 270.4354248 495.35831543 270.4354248 496.89550781 271.28613281 C502.04391385 274.12836389 507.21020477 276.93769774 512.375 279.75 C514.23706252 280.76547218 516.0990495 281.78108288 517.9609375 282.796875 C519.13342041 283.43641113 519.13342041 283.43641113 520.32958984 284.08886719 C520.8808252 284.38954102 521.43206055 284.69021484 522 285 C522 285.66 522 286.32 522 287 C520.99066406 287.54785156 519.98132813 288.09570312 518.94140625 288.66015625 C509.66578075 293.7354985 500.54736239 299.02777167 491.5 304.5 C483.67730013 309.22907625 475.82014029 313.84057347 467.80322266 318.23144531 C458.45778052 323.36482763 449.28508942 328.79703848 440.08789062 334.18994141 C423.525625 343.89840419 406.91762132 353.52636574 390.28222656 363.10888672 C383.77270411 366.85946399 377.2660522 370.61501989 370.75927734 374.37036133 C365.29465337 377.52385162 359.82852098 380.6746704 354.359375 383.8203125 C341.41568998 391.26874899 328.51924106 398.79005975 315.67675781 406.41162109 C302.47345159 414.24641772 289.24410099 422.03454637 275.97680664 429.76049805 C266.45353667 435.30988508 256.96607433 440.91894821 247.48095703 446.53320312 C243.82432599 448.69508458 240.16250143 450.84808355 236.5 453 C228.22629146 457.86263555 219.96409016 462.74465984 211.703125 467.62890625 C207.88127302 469.88852698 204.05829781 472.14622929 200.234375 474.40234375 C190.45323635 480.17437968 180.68495051 485.96568694 170.95507812 491.82373047 C167.18065785 494.09460421 163.40249478 496.35924564 159.625 498.625 C154.00238601 501.9974761 148.38087741 505.37176907 142.76171875 508.75 C131.60380418 515.45576681 120.42857736 522.12759324 109.19775391 528.71044922 C97.07193115 535.82537877 84.98293749 542.99983925 72.9375 550.25 C63.07047086 556.188798 53.15136073 562.03341166 43.20291138 567.83432007 C34.78330747 572.74432385 26.41235026 577.72134624 18.18774414 582.95410156 C13.32139851 586 13.32139851 586 10 586 C9.98122866 584.7960364 9.96245731 583.59207279 9.94311714 582.35162544 C9.48777739 553.15011459 9.03123898 523.94862269 8.57340158 494.74715091 C8.51588595 491.07866714 8.45837955 487.41018322 8.40087891 483.74169922 C8.38944107 483.01198646 8.37800323 482.28227369 8.36621879 481.53044842 C8.20791357 471.42966288 8.050097 461.32886982 7.89270304 451.22807004 C6.48053111 360.60309882 5.00980727 269.97945289 1.94206238 111.47720337 C1.62528857 95.34761434 1.30887055 79.21801869 0.99479115 63.08837694 C0.87030973 56.698756 0.7448124 50.30915615 0.61845756 43.919572 C0.54130859 40.00767358 0.46504482 36.09575828 0.38901901 32.18383789 C0.35391952 30.38712775 0.31845503 28.5904247 0.28258514 26.79372978 C0.10445174 17.86210227 -0.05993459 8.93398151 0 0 Z " fill="#FEFEFE" transform="translate(187,258)"/>
<path d="M0 0 C3.11458835 0.72846288 5.58397846 1.72031626 8.39453125 3.265625 C9.68556763 3.97199097 9.68556763 3.97199097 11.00268555 4.69262695 C11.92992432 5.20656006 12.85716309 5.72049316 13.8125 6.25 C15.27586792 7.05473755 15.27586792 7.05473755 16.76879883 7.87573242 C24.55864098 12.17170666 32.30596366 16.5421916 40.04272461 20.93286133 C47.46407817 25.14246047 54.9134032 29.29969571 62.375 33.4375 C71.40296731 38.44562563 80.42660003 43.46121576 89.4375 48.5 C90.42476074 49.05099365 91.41202148 49.6019873 92.42919922 50.16967773 C93.37939941 50.70149658 94.32959961 51.23331543 95.30859375 51.78125 C96.23526855 52.29945313 97.16194336 52.81765625 98.11669922 53.3515625 C100.17521471 54.52845468 102.21689102 55.73500291 104.24658203 56.9609375 C105.84348877 57.92386719 105.84348877 57.92386719 107.47265625 58.90625 C108.91717163 59.79280273 108.91717163 59.79280273 110.39086914 60.69726562 C113.1104057 62.29780748 113.1104057 62.29780748 117 62 C117 62.99 117 63.98 117 65 C117.73234863 65.28125732 118.46469727 65.56251465 119.21923828 65.85229492 C121.74974101 66.89671049 124.0923693 68.05135655 126.4921875 69.36328125 C127.35158936 69.83209717 128.21099121 70.30091309 129.09643555 70.78393555 C130.47182495 71.54057495 130.47182495 71.54057495 131.875 72.3125 C133.30549683 73.09524292 133.30549683 73.09524292 134.76489258 73.89379883 C143.11504598 78.47805005 151.40749866 83.16326374 159.67333984 87.89770508 C161.0473999 88.6811731 161.0473999 88.6811731 162.44921875 89.48046875 C163.25705811 89.94348389 164.06489746 90.40649902 164.8972168 90.88354492 C167.0890661 92.12167581 167.0890661 92.12167581 170 93 C171.20411436 93.72302479 172.39012288 94.47657376 173.5625 95.25 C177.35279701 97.67022635 181.24964436 99.67212909 185.3125 101.59375 C187.45806905 102.71643148 189.4374431 103.89051239 191.47265625 105.19140625 C197.30432654 108.88166432 203.38545745 112.12709515 209.4375 115.4375 C212.02680645 116.85798461 214.6151019 118.28030377 217.203125 119.703125 C218.1800959 120.23996162 218.1800959 120.23996162 219.17680359 120.78764343 C226.71598612 124.93542569 234.21443886 129.15562643 241.70288086 133.39428711 C246.1564407 135.90298824 250.61568323 138.33401073 255.20703125 140.58203125 C258.85691632 142.37922821 262.25366557 144.37007182 265.67285156 146.56689453 C271.10619847 149.91286037 276.77519728 152.88055155 282.375 155.9375 C284.90494585 157.31925451 287.43379751 158.70296363 289.9609375 160.08984375 C290.56964188 160.42376129 291.17834625 160.75767883 291.80549622 161.10171509 C296.22078408 163.53734088 300.54912746 166.09092397 304.83227539 168.7512207 C307.87007215 170.50122976 311.03505496 171.8382997 314.28515625 173.140625 C316 174 316 174 317 176 C318.65333036 176.6990858 320.32368598 177.35797701 322 178 C324.30122293 179.16431026 326.58167357 180.34719024 328.85546875 181.5625 C329.50972336 181.9097966 330.16397797 182.2570932 330.83805847 182.61491394 C332.95604677 183.7404686 335.0718699 184.87001985 337.1875 186 C338.65509873 186.78167934 340.12270946 187.56333614 341.59033203 188.3449707 C349.56612752 192.5987172 357.51394209 196.89539158 365.39526367 201.32226562 C373.0061717 205.58962737 380.70370886 209.694937 388.39233398 213.82006836 C394.76974471 217.24650654 401.12102251 220.7126022 407.4375 224.25 C413.75385943 227.78033121 420.10785856 231.233669 426.5 234.625 C427.32040771 235.06360352 428.14081543 235.50220703 428.98608398 235.95410156 C429.74348877 236.35338867 430.50089355 236.75267578 431.28125 237.1640625 C431.95220703 237.51936035 432.62316406 237.8746582 433.31445312 238.24072266 C434.9958099 239.13690536 434.9958099 239.13690536 437 239 C437 239.66 437 240.32 437 241 C438.05356689 241.39940796 438.05356689 241.39940796 439.12841797 241.80688477 C442.17702508 243.07355225 445.03336152 244.53462319 447.9453125 246.08984375 C449.09580078 246.7041626 450.24628906 247.31848145 451.43164062 247.95141602 C452.66289029 248.61320243 453.89400742 249.27523549 455.125 249.9375 C455.74882568 250.27192108 456.37265137 250.60634216 457.01538086 250.95089722 C465.70891716 255.61374077 474.3016889 260.41624159 482.80541992 265.41870117 C487.84092766 268.36954785 492.95381117 271.05013342 498.2109375 273.58984375 C502.42658239 275.72128325 506.45754179 278.14776419 510.50390625 280.58203125 C513.00436179 282.10902784 513.00436179 282.10902784 516 283 C514.52183621 287.50536224 511.03885913 289.03177489 507.125 291.1875 C505.58062777 292.06654926 504.03777065 292.94826345 502.49609375 293.83203125 C501.63097168 294.32654785 500.76584961 294.82106445 499.87451172 295.33056641 C494.87366417 298.23491459 489.94256034 301.25445353 485.00579834 304.26593018 C481.96783566 306.11893342 478.92723889 307.96760345 475.88671875 309.81640625 C475.29425354 310.17675964 474.70178833 310.53711304 474.09136963 310.90838623 C465.75136206 315.97852937 457.37564682 320.98904675 449 326 C445.62439218 328.01982009 442.24930711 330.04050762 438.875 332.0625 C438.03912354 332.56338135 437.20324707 333.0642627 436.34204102 333.58032227 C431.02167483 336.77337255 425.72425145 340.00168163 420.4375 343.25 C412.48009168 348.1355491 404.44832733 352.89120115 396.40805054 357.63882446 C384.93867081 364.41437102 373.55012163 371.31893496 362.171875 378.24609375 C356.51265803 381.69145883 350.83500538 385.10389539 345.1484375 388.50390625 C341.58247521 390.64329799 338.02910439 392.80327033 334.4765625 394.96484375 C333.58776649 395.50560043 333.58776649 395.50560043 332.68101501 396.05728149 C332.07753738 396.42445282 331.47405975 396.79162415 330.85229492 397.16992188 C319.88668128 403.84152706 308.89361173 410.45634059 297.81347656 416.93652344 C286.79951448 423.3954382 275.94063412 430.105749 265.08447266 436.82543945 C259.58201313 440.22087128 254.06088621 443.57042537 248.46875 446.81640625 C246.94229858 447.70344238 246.94229858 447.70344238 245.38500977 448.60839844 C243.45784831 449.72258604 241.52619497 450.82904941 239.58959961 451.92675781 C238.30581421 452.66877441 238.30581421 452.66877441 236.99609375 453.42578125 C236.24513428 453.85286377 235.4941748 454.27994629 234.72045898 454.7199707 C232.69016905 455.97554339 232.69016905 455.97554339 232 459 C230.95972656 459.1381311 230.95972656 459.1381311 229.8984375 459.27905273 C226.36134757 460.15885619 223.7604594 461.67530442 220.625 463.53515625 C220.01922119 463.89210068 219.41344238 464.2490451 218.78930664 464.61680603 C216.85548373 465.75867784 214.92780644 466.91050631 213 468.0625 C211.73605207 468.80987932 210.47173196 469.5566296 209.20703125 470.30273438 C202.08542438 474.51409856 195.02190068 478.81355695 187.98339844 483.16235352 C183.71831176 485.78946541 179.42437762 488.36702385 175.125 490.9375 C173.38150778 491.98176644 171.63801822 493.0260373 169.89453125 494.0703125 C169.05615723 494.57208008 168.2177832 495.07384766 167.35400391 495.59082031 C164.17205338 497.4956345 160.99213105 499.40381743 157.8125 501.3125 C153.37656996 503.97528426 148.93906371 506.63541108 144.5 509.29296875 C134.03547031 515.5610584 123.58604384 521.8521349 113.16757202 528.1965332 C102.48576359 534.70084654 91.76199151 541.12922091 81 547.5 C70.57048232 553.6743564 60.16937184 559.89195182 49.8125 566.1875 C48.15831055 567.19296875 48.15831055 567.19296875 46.47070312 568.21875 C39.90172451 572.21865278 33.34795544 576.24269827 26.80224609 580.28051758 C17.48118699 586 17.48118699 586 15 586 C14.77672804 574.46526212 14.57522283 562.93036993 14.40159988 551.39477158 C14.32029579 546.03847735 14.23146124 540.68252762 14.12548828 535.32666016 C14.02351873 530.15918212 13.94123711 524.99173305 13.87267303 519.82370758 C13.84302421 517.85080376 13.8062486 515.8779939 13.7622757 513.90535736 C13.70194973 511.14482153 13.66684052 508.3850398 13.63769531 505.62402344 C13.61396347 504.80618881 13.59023163 503.98835419 13.56578064 503.14573669 C13.55169689 499.50169346 13.64145656 497.46213854 15.91238403 494.5350647 C17.75643266 493.17909981 19.52884353 491.94266622 21.5390625 490.8515625 C22.52688721 490.30737671 22.52688721 490.30737671 23.53466797 489.75219727 C24.22447754 489.38022217 24.91428711 489.00824707 25.625 488.625 C27.05784933 487.83564685 28.49014153 487.04528155 29.921875 486.25390625 C30.61732422 485.87121582 31.31277344 485.48852539 32.02929688 485.09423828 C34.67107435 483.62738414 37.2783125 482.10760499 39.875 480.5625 C41.01582031 479.88380859 41.01582031 479.88380859 42.1796875 479.19140625 C44.13804175 477.99823194 44.13804175 477.99823194 46 476 C47.37808992 475.27759076 48.77787876 474.59626772 50.1875 473.9375 C55.0775772 471.53741968 59.70855681 468.8241234 64.35986328 465.99291992 C70.70412377 462.14616329 77.12954718 458.44607497 83.5625 454.75 C92.54924401 449.58128823 101.50476733 444.36549492 110.421875 439.07763672 C119.71752011 433.56679188 129.04250884 428.1063976 138.3684082 422.64697266 C138.97090393 422.29415222 139.57339966 421.94133179 140.19415283 421.57781982 C141.83574376 420.61655987 143.47755665 419.65567899 145.11938477 418.69482422 C146.06998779 418.13553223 147.02059082 417.57624023 148 417 C148.9087085 416.47293457 149.81741699 415.94586914 150.75366211 415.40283203 C153.08772474 414.06241645 153.08772474 414.06241645 155 412 C156.71140027 411.11077158 158.44452307 410.26312065 160.1875 409.4375 C165.44913608 406.84696539 170.4603576 403.99234426 175.46582031 400.93994141 C181.73261104 397.13080642 188.08002874 393.467871 194.4375 389.8125 C210.50919466 380.5644961 226.53028898 371.23117953 242.50585938 361.81811523 C250.56335261 357.07350902 258.64365948 352.36801959 266.72265625 347.66015625 C270.92042116 345.21380706 275.11555728 342.76303826 279.30859375 340.30859375 C281.37228259 339.1013689 283.43608301 337.89433476 285.5 336.6875 C286.49410889 336.10613281 287.48821777 335.52476562 288.51245117 334.92578125 C295.08384677 331.09223922 301.68664233 327.32109073 308.35742188 323.6628418 C310.87383014 322.27051612 312.9543177 321.0456823 315 319 C316.37808992 318.27759076 317.77787876 317.59626772 319.1875 316.9375 C323.53021664 314.80944512 327.68471229 312.45132383 331.8125 309.9375 C338.2637232 306.01819936 344.76911027 302.20102192 351.3125 298.4375 C352.70142456 297.63203735 352.70142456 297.63203735 354.1184082 296.81030273 C354.98296631 296.31473877 355.84752441 295.8191748 356.73828125 295.30859375 C357.51212158 294.86314209 358.28596191 294.41769043 359.08325195 293.95874023 C361 293 361 293 363 293 C363 292.34 363 291.68 363 291 C361.94462036 290.599021 361.94462036 290.599021 360.86791992 290.18994141 C357.84531213 288.93581777 355.00492903 287.49258444 352.11328125 285.9609375 C351.01048828 285.38085938 349.90769531 284.80078125 348.77148438 284.203125 C346.45310687 282.9778278 344.13540497 281.75125149 341.81835938 280.5234375 C340.71943359 279.9459375 339.62050781 279.3684375 338.48828125 278.7734375 C337.48321533 278.24153809 336.47814941 277.70963867 335.44262695 277.16162109 C333.14976841 275.85684299 333.14976841 275.85684299 331 276 C331 275.34 331 274.68 331 274 C330.34902344 273.76023437 329.69804688 273.52046875 329.02734375 273.2734375 C325.07982695 271.61293366 321.34296258 269.63250485 317.5625 267.625 C316.72468994 267.18220703 315.88687988 266.73941406 315.02368164 266.28320312 C308.07292092 262.59737864 301.17206205 258.82303074 294.27441406 255.0390625 C283.8860154 249.35897155 273.41176508 243.84118962 262.93920898 238.31835938 C261.88809685 237.76356903 261.88809685 237.76356903 260.81575012 237.1975708 C259.44647214 236.4751821 258.07668171 235.7537638 256.7063446 235.03338623 C251.75681861 232.4244287 246.87488047 229.70758947 242.02807617 226.91162109 C241.35881104 226.61078613 240.6895459 226.30995117 240 226 C239.34 226.33 238.68 226.66 238 227 C235.875 226.0625 235.875 226.0625 234 225 C234.33 224.34 234.66 223.68 235 223 C233.88367188 222.41734375 232.76734375 221.8346875 231.6171875 221.234375 C213.3625322 211.68155397 195.32671763 201.74849952 177.33032227 191.71923828 C168.32767571 186.71286352 159.27191083 181.81088384 150.19042969 176.94921875 C142.82673969 173.00251735 135.50889356 168.98217427 128.25170898 164.8425293 C124.83960823 162.72988789 124.83960823 162.72988789 121 162 C119.99140323 161.00867131 118.99256311 160.00738199 118 159 C116.27413757 157.91213064 116.27413757 157.91213064 114.359375 156.9765625 C113.63073242 156.60225098 112.90208984 156.22793945 112.15136719 155.84228516 C111.35891602 155.44058105 110.56646484 155.03887695 109.75 154.625 C102.31612496 150.79061012 95.00947064 146.77955742 87.75 142.625 C74.85998179 135.26940762 61.77555567 128.22675 48.40234375 121.78515625 C45 120 45 120 44 118 C42.34178013 117.31259249 40.67291356 116.65083212 39 116 C36.76946812 114.77733808 34.56877912 113.53468093 32.375 112.25 C31.12678713 111.52780684 29.87808362 110.80646107 28.62890625 110.0859375 C28.01418457 109.73112305 27.39946289 109.37630859 26.76611328 109.01074219 C24.29937318 107.59903303 21.80919265 106.23291341 19.3125 104.875 C18.44367188 104.400625 17.57484375 103.92625 16.6796875 103.4375 C14.77870304 102.41772991 12.86588171 101.41988834 10.9453125 100.4375 C9.95273437 99.921875 8.96015625 99.40625 7.9375 98.875 C7.03902344 98.41867187 6.14054687 97.96234375 5.21484375 97.4921875 C2.62583641 95.74791801 2.08561567 94.90066283 1 92 C0.7215271 88.74139404 0.7215271 88.74139404 0.68115234 84.82324219 C0.67110672 84.1070874 0.6610611 83.39093262 0.65071106 82.65307617 C0.61982688 80.28435021 0.60280636 77.9157389 0.5859375 75.546875 C0.56719942 73.88697373 0.54762409 72.22708173 0.5272522 70.56719971 C0.47586449 66.18727252 0.43632788 61.80731345 0.39910889 57.42724609 C0.35948361 53.02693448 0.30795062 48.62676447 0.2578125 44.2265625 C0.09505405 29.48394142 -0.02684997 14.74361806 0 0 Z " fill="#FEFEFE" transform="translate(366,252)"/>
<path d="M0 0 C2.475 0.495 2.475 0.495 5 1 C4.01 1.33 3.02 1.66 2 2 C2 4.97 2 7.94 2 11 C1.34 10.67 0.68 10.34 0 10 C0 6.7 0 3.4 0 0 Z " fill="#BFBFBF" transform="translate(272,89)"/>
<path d="M0 0 C0.33 0 0.66 0 1 0 C1 4.95 1 9.9 1 15 C0.67 15 0.34 15 0 15 C0 10.05 0 5.1 0 0 Z " fill="#F7F7F9" transform="translate(271,569)"/>
<path d="M0 0 C0.33 0 0.66 0 1 0 C1 1.98 1 3.96 1 6 C0.34 5.01 -0.32 4.02 -1 3 C-0.67 2.01 -0.34 1.02 0 0 Z " fill="#D1D2D3" transform="translate(193,680)"/>
<path d="M0 0 C0.99 0 1.98 0 3 0 C3 0.66 3 1.32 3 2 C2.01 2.33 1.02 2.66 0 3 C0 2.01 0 1.02 0 0 Z " fill="#F6F6F7" transform="translate(612,608)"/>
<path d="M0 0 C0.33 0 0.66 0 1 0 C1 2.31 1 4.62 1 7 C0.67 7 0.34 7 0 7 C0 4.69 0 2.38 0 0 Z " fill="#F6F7F8" transform="translate(271,585)"/>
<path d="M0 0 C0.33 0 0.66 0 1 0 C1 2.31 1 4.62 1 7 C0.67 7 0.34 7 0 7 C0 4.69 0 2.38 0 0 Z " fill="#F8FAFB" transform="translate(276,393)"/>
<path d="M0 0 C0.33 0 0.66 0 1 0 C1 1.98 1 3.96 1 6 C0.67 6 0.34 6 0 6 C0 4.02 0 2.04 0 0 Z " fill="#F7F8F9" transform="translate(271,562)"/>
<path d="M0 0 C0.33 0 0.66 0 1 0 C1 1.98 1 3.96 1 6 C0.67 6 0.34 6 0 6 C0 4.02 0 2.04 0 0 Z " fill="#F9F9FA" transform="translate(276,401)"/>
<path d="M0 0 C0.33 0 0.66 0 1 0 C1 1.98 1 3.96 1 6 C0.67 6 0.34 6 0 6 C0 4.02 0 2.04 0 0 Z " fill="#F8F8FA" transform="translate(275,345)"/>
<path d="M0 0 C0.99 0.33 1.98 0.66 3 1 C2.67 1.66 2.34 2.32 2 3 C1.34 2.67 0.68 2.34 0 2 C0 1.34 0 0.68 0 0 Z " fill="#F6F7F8" transform="translate(482,306)"/>
<path d="M0 0 C0.99 0.33 1.98 0.66 3 1 C2.67 1.66 2.34 2.32 2 3 C1.34 2.67 0.68 2.34 0 2 C0 1.34 0 0.68 0 0 Z " fill="#CCCDCC" transform="translate(645,297)"/>
<path d="M0 0 C0.33 0.66 0.66 1.32 1 2 C0.01 2.33 -0.98 2.66 -2 3 C-2 2.34 -2 1.68 -2 1 C-1.34 0.67 -0.68 0.34 0 0 Z " fill="#A9A7A7" transform="translate(212,837)"/>
<path d="M0 0 C0.66 0.99 1.32 1.98 2 3 C1.01 2.67 0.02 2.34 -1 2 C-0.67 1.34 -0.34 0.68 0 0 Z " fill="#F7F8F8" transform="translate(527,657)"/>
<path d="M0 0 C0.99 0.33 1.98 0.66 3 1 C2.67 1.66 2.34 2.32 2 3 C1.34 2.01 0.68 1.02 0 0 Z " fill="#F5F5F5" transform="translate(659,405)"/>
<path d="M0 0 C0.33 0 0.66 0 1 0 C1 1.65 1 3.3 1 5 C0.67 5 0.34 5 0 5 C0 3.35 0 1.7 0 0 Z " fill="#F8F9FA" transform="translate(276,386)"/>
<path d="M0 0 C0.33 0 0.66 0 1 0 C1 1.65 1 3.3 1 5 C0.67 5 0.34 5 0 5 C0 3.35 0 1.7 0 0 Z " fill="#F7F7F8" transform="translate(275,314)"/>
<path d="M0 0 C0.33 0 0.66 0 1 0 C1 1.65 1 3.3 1 5 C0.67 5 0.34 5 0 5 C0 3.35 0 1.7 0 0 Z " fill="#F5F5F7" transform="translate(274,297)"/>
<path d="M0 0 C0.99 0 1.98 0 3 0 C2.67 0.66 2.34 1.32 2 2 C1.34 1.34 0.68 0.68 0 0 Z " fill="#D9D9D9" transform="translate(291,790)"/>
<path d="M0 0 C0.66 0.66 1.32 1.32 2 2 C1.01 1.67 0.02 1.34 -1 1 C-0.67 0.67 -0.34 0.34 0 0 Z " fill="#F6F7F7" transform="translate(468,685)"/>
<path d="M0 0 C0.99 0.33 1.98 0.66 3 1 C2.01 1.33 1.02 1.66 0 2 C0 1.34 0 0.68 0 0 Z " fill="#CFCFCE" transform="translate(651,678)"/>
<path d="M0 0 C0 3 0 3 0 3 Z " fill="#F5F5F6" transform="translate(331,665)"/>
<path d="M0 0 C1 4 1 4 1 4 Z " fill="#D2D3D4" transform="translate(192,641)"/>
<path d="M0 0 C1 4 1 4 1 4 Z " fill="#D1D1D2" transform="translate(192,617)"/>
<path d="M0 0 C0.66 0 1.32 0 2 0 C2 0.66 2 1.32 2 2 C1.34 2 0.68 2 0 2 C0 1.34 0 0.68 0 0 Z " fill="#F0F2F2" transform="translate(725,543)"/>
<path d="M0 0 C1 4 1 4 1 4 Z " fill="#E1E3E5" transform="translate(359,540)"/>
<path d="M0 0 C0.33 0.66 0.66 1.32 1 2 C0.01 1.67 -0.98 1.34 -2 1 C-1.34 0.67 -0.68 0.34 0 0 Z " fill="#F2F3F5" transform="translate(626,498)"/>
<path d="M0 0 C0.99 0.33 1.98 0.66 3 1 C2.01 1 1.02 1 0 1 C0 0.67 0 0.34 0 0 Z " fill="#F6F6F7" transform="translate(625,386)"/>
<path d="M0 0 C1 4 1 4 1 4 Z " fill="#F9F9FB" transform="translate(268,348)"/>
<path d="M0 0 C1 4 1 4 1 4 Z " fill="#F9F9FA" transform="translate(268,340)"/>
<path d="M0 0 C1 4 1 4 1 4 Z " fill="#F0F2F2" transform="translate(274,283)"/>
<path d="M0 0 C0.66 0 1.32 0 2 0 C1.67 0.66 1.34 1.32 1 2 C0.67 1.34 0.34 0.68 0 0 Z " fill="#CECFCF" transform="translate(546,740)"/>
<path d="" fill="#CFCFCF" transform="translate(0,0)"/>
<path d="M0 0 C0.33 0.66 0.66 1.32 1 2 C0.34 1.67 -0.32 1.34 -1 1 C-0.67 0.67 -0.34 0.34 0 0 Z " fill="#CFCECE" transform="translate(586,716)"/>
<path d="M0 0 C0.99 0.495 0.99 0.495 2 1 C1.01 1.495 1.01 1.495 0 2 C0 1.34 0 0.68 0 0 Z " fill="#F7F7F8" transform="translate(480,680)"/>
<path d="M0 0 C3 1 3 1 3 1 Z " fill="#F5F6F7" transform="translate(316,670)"/>
<path d="" fill="#F9F8F9" transform="translate(0,0)"/>
<path d="M0 0 C3 1 3 1 3 1 Z " fill="#E5E7E6" transform="translate(417,616)"/>
<path d="M0 0 C3 1 3 1 3 1 Z " fill="#F7F7F7" transform="translate(608,611)"/>
<path d="M0 0 C3 1 3 1 3 1 Z " fill="#F6F6F8" transform="translate(663,579)"/>
<path d="M0 0 C3 1 3 1 3 1 Z " fill="#F4F6F7" transform="translate(659,574)"/>
<path d="M0 0 C0.66 0 1.32 0 2 0 C1.67 0.66 1.34 1.32 1 2 C0.67 1.34 0.34 0.68 0 0 Z " fill="#F4F5F6" transform="translate(673,569)"/>
<path d="M0 0 C0.99 0.495 0.99 0.495 2 1 C1.01 1.495 1.01 1.495 0 2 C0 1.34 0 0.68 0 0 Z " fill="#F0F1F2" transform="translate(723,542)"/>
<path d="M0 0 C0.66 0 1.32 0 2 0 C1.67 0.66 1.34 1.32 1 2 C0.67 1.34 0.34 0.68 0 0 Z " fill="#F1F0F2" transform="translate(705,532)"/>
<path d="" fill="#F8F8F8" transform="translate(0,0)"/>
<path d="M0 0 C0.99 0.495 0.99 0.495 2 1 C1.01 1.495 1.01 1.495 0 2 C0 1.34 0 0.68 0 0 Z " fill="#F9F9FB" transform="translate(270,498)"/>
<path d="" fill="#F8F8F9" transform="translate(0,0)"/>
<path d="" fill="#F7F8FA" transform="translate(0,0)"/>
<path d="" fill="#EFEFF1" transform="translate(0,0)"/>
<path d="M0 0 C0.66 0 1.32 0 2 0 C1.67 0.66 1.34 1.32 1 2 C0.67 1.34 0.34 0.68 0 0 Z " fill="#D8DADA" transform="translate(496,419)"/>
<path d="" fill="#CBCACC" transform="translate(0,0)"/>
<path d="M0 0 C3 1 3 1 3 1 Z " fill="#F6F6F7" transform="translate(640,395)"/>
<path d="M0 0 C0.99 0.495 0.99 0.495 2 1 C1.01 1.495 1.01 1.495 0 2 C0 1.34 0 0.68 0 0 Z " fill="#F7F7F7" transform="translate(614,386)"/>
<path d="" fill="#F8FAFB" transform="translate(0,0)"/>
<path d="M0 0 C3 1 3 1 3 1 Z " fill="#F7F7F9" transform="translate(568,355)"/>
<path d="M0 0 C3 1 3 1 3 1 Z " fill="#F6F7F8" transform="translate(543,341)"/>
<path d="" fill="#F8F9FA" transform="translate(0,0)"/>
<path d="M0 0 C0.66 0.66 1.32 1.32 2 2 C1.34 2 0.68 2 0 2 C0 1.34 0 0.68 0 0 Z " fill="#CCCECD" transform="translate(670,312)"/>
<path d="M0 0 C0.99 0.495 0.99 0.495 2 1 C1.01 1.495 1.01 1.495 0 2 C0 1.34 0 0.68 0 0 Z " fill="#F5F5F6" transform="translate(396,265)"/>
<path d="M0 0 C2 1 2 1 2 1 Z " fill="#8A8B8E" transform="translate(382,839)"/>
<path d="M0 0 C2 1 2 1 2 1 Z " fill="#B4B4B5" transform="translate(399,831)"/>
<path d="" fill="#B9B7B7" transform="translate(0,0)"/>
<path d="M0 0 C2 1 2 1 2 1 Z " fill="#B5B7B6" transform="translate(397,830)"/>
<path d="" fill="#CECFCF" transform="translate(0,0)"/>
<path d="M0 0 C2 1 2 1 2 1 Z " fill="#CDCCCD" transform="translate(452,799)"/>
<path d="" fill="#E4E6E6" transform="translate(0,0)"/>
<path d="M0 0 C2 1 2 1 2 1 Z " fill="#E0E1E1" transform="translate(326,770)"/>
<path d="M0 0 C2 1 2 1 2 1 Z " fill="#E4E6E5" transform="translate(332,766)"/>
<path d="" fill="#CBCCCD" transform="translate(0,0)"/>
<path d="M0 0 C2 1 2 1 2 1 Z " fill="#D3D3D3" transform="translate(516,758)"/>
<path d="" fill="#CECFD1" transform="translate(0,0)"/>
<path d="" fill="#CECFD0" transform="translate(0,0)"/>
<path d="M0 0 C2 1 2 1 2 1 Z " fill="#F6F4F6" transform="translate(382,738)"/>
<path d="M0 0 C2 1 2 1 2 1 Z " fill="#D2D2D2" transform="translate(556,734)"/>
<path d="" fill="#CDCCCF" transform="translate(0,0)"/>
<path d="M0 0 C2 1 2 1 2 1 Z " fill="#CECECF" transform="translate(568,727)"/>
<path d="" fill="#F4F4F4" transform="translate(0,0)"/>
<path d="M0 0 C2 1 2 1 2 1 Z " fill="#F5F6F7" transform="translate(406,726)"/>
<path d="" fill="#F5F6F6" transform="translate(0,0)"/>
<path d="" fill="#F6F6F7" transform="translate(0,0)"/>
<path d="M0 0 C2 1 2 1 2 1 Z " fill="#F4F5F6" transform="translate(414,719)"/>
<path d="M0 0 C2 1 2 1 2 1 Z " fill="#F5F8F7" transform="translate(413,717)"/>
<path d="M0 0 C2 1 2 1 2 1 Z " fill="#F7F6F7" transform="translate(422,714)"/>
<path d="M0 0 C2 1 2 1 2 1 Z " fill="#F6F7F7" transform="translate(435,713)"/>
<path d="M0 0 C2 1 2 1 2 1 Z " fill="#CFCECF" transform="translate(604,705)"/>
<path d="M0 0 C2 1 2 1 2 1 Z " fill="#F7F6F6" transform="translate(464,696)"/>
<path d="" fill="#CACACC" transform="translate(0,0)"/>
<path d="M0 0 C2 1 2 1 2 1 Z " fill="#F5F5F7" transform="translate(285,687)"/>
<path d="" fill="#F5F5F6" transform="translate(0,0)"/>
<path d="" fill="#F8F8F8" transform="translate(0,0)"/>
<path d="" fill="#F8F8F9" transform="translate(0,0)"/>
<path d="M0 0 C2 1 2 1 2 1 Z " fill="#F7F7F7" transform="translate(311,673)"/>
<path d="M0 0 C2 1 2 1 2 1 Z " fill="#F5F7F7" transform="translate(505,672)"/>
<path d="" fill="#F7F8F9" transform="translate(0,0)"/>
<path d="" fill="#F7F7F8" transform="translate(0,0)"/>
<path d="M0 0 C2 1 2 1 2 1 Z " fill="#F5F5F6" transform="translate(332,664)"/>
<path d="" fill="#F7F9F9" transform="translate(0,0)"/>
<path d="M0 0 C2 1 2 1 2 1 Z " fill="#F6F6F8" transform="translate(517,663)"/>
<path d="" fill="#F5F6F6" transform="translate(0,0)"/>
<path d="M0 0 C2 1 2 1 2 1 Z " fill="#F5F6F6" transform="translate(324,662)"/>
<path d="M0 0 C2 1 2 1 2 1 Z " fill="#F7F8F9" transform="translate(524,661)"/>
<path d="M0 0 C2 1 2 1 2 1 Z " fill="#F7F7F8" transform="translate(529,656)"/>
<path d="" fill="#F7F8F7" transform="translate(0,0)"/>
<path d="M0 0 C2 1 2 1 2 1 Z " fill="#F7F9F9" transform="translate(556,640)"/>
<path d="" fill="#F7F8F8" transform="translate(0,0)"/>
<path d="M0 0 C2 1 2 1 2 1 Z " fill="#F6F7F8" transform="translate(580,628)"/>
<path d="" fill="#D3D3D5" transform="translate(0,0)"/>
<path d="M0 0 C2 1 2 1 2 1 Z " fill="#F4F5F6" transform="translate(601,616)"/>
<path d="M0 0 C2 1 2 1 2 1 Z " fill="#E5E5E5" transform="translate(432,608)"/>
<path d="M0 0 C2 1 2 1 2 1 Z " fill="#F5F7F8" transform="translate(604,606)"/>
<path d="" fill="#E3E5E4" transform="translate(0,0)"/>
<path d="M0 0 C2 1 2 1 2 1 Z " fill="#F6F7F7" transform="translate(620,605)"/>
<path d="M0 0 C2 1 2 1 2 1 Z " fill="#F5F7F7" transform="translate(625,602)"/>
<path d="" fill="#F6F6F7" transform="translate(0,0)"/>
<path d="M0 0 C2 1 2 1 2 1 Z " fill="#CDCDCD" transform="translate(787,595)"/>
<path d="" fill="#F9F9F8" transform="translate(0,0)"/>
<path d="M0 0 C2 1 2 1 2 1 Z " fill="#F7F7F8" transform="translate(642,592)"/>
<path d="M0 0 C2 1 2 1 2 1 Z " fill="#F4F4F4" transform="translate(656,584)"/>
<path d="M0 0 C2 1 2 1 2 1 Z " fill="#F5F5F5" transform="translate(667,577)"/>
<path d="M0 0 C2 1 2 1 2 1 Z " fill="#F4F6F7" transform="translate(664,576)"/>
<path d="M0 0 C2 1 2 1 2 1 Z " fill="#CBCBCA" transform="translate(835,566)"/>
<path d="" fill="#F1F2F3" transform="translate(0,0)"/>
<path d="" fill="#F9F9FA" transform="translate(0,0)"/>
<path d="" fill="#E4E4E5" transform="translate(0,0)"/>
<path d="" fill="#E3E5E6" transform="translate(0,0)"/>
<path d="" fill="#E0E1E4" transform="translate(0,0)"/>
<path d="" fill="#E1E1E3" transform="translate(0,0)"/>
<path d="M0 0 C2 1 2 1 2 1 Z " fill="#F9F9F9" transform="translate(270,530)"/>
<path d="" fill="#F7F8F9" transform="translate(0,0)"/>
<path d="M0 0 C2 1 2 1 2 1 Z " fill="#C4C6C4" transform="translate(844,513)"/>
<path d="" fill="#F8F8F9" transform="translate(0,0)"/>
<path d="M0 0 C2 1 2 1 2 1 Z " fill="#F4F3F6" transform="translate(658,507)"/>
<path d="" fill="#F8FAFA" transform="translate(0,0)"/>
<path d="M0 0 C2 1 2 1 2 1 Z " fill="#F1F3F4" transform="translate(629,499)"/>
<path d="M0 0 C2 1 2 1 2 1 Z " fill="#EFF0EF" transform="translate(619,486)"/>
<path d="" fill="#E9E9E9" transform="translate(0,0)"/>
<path d="M0 0 C2 1 2 1 2 1 Z " fill="#E0E2E2" transform="translate(558,455)"/>
<path d="M0 0 C2 1 2 1 2 1 Z " fill="#E1E2E3" transform="translate(554,451)"/>
<path d="M0 0 C2 1 2 1 2 1 Z " fill="#DBDFDE" transform="translate(531,438)"/>
<path d="M0 0 C2 1 2 1 2 1 Z " fill="#EBEBEA" transform="translate(706,428)"/>
<path d="M0 0 C2 1 2 1 2 1 Z " fill="#DADEDD" transform="translate(504,423)"/>
<path d="M0 0 C2 1 2 1 2 1 Z " fill="#F3F3F5" transform="translate(675,414)"/>
<path d="M0 0 C2 1 2 1 2 1 Z " fill="#D6D8D9" transform="translate(483,414)"/>
<path d="M0 0 C2 1 2 1 2 1 Z " fill="#DADBDC" transform="translate(483,412)"/>
<path d="" fill="#D9D9DB" transform="translate(0,0)"/>
<path d="" fill="#E7E6E7" transform="translate(0,0)"/>
<path d="M0 0 C2 1 2 1 2 1 Z " fill="#F3F5F5" transform="translate(650,408)"/>
<path d="" fill="#E6E7E8" transform="translate(0,0)"/>
<path d="M0 0 C2 1 2 1 2 1 Z " fill="#F4F5F7" transform="translate(657,404)"/>
<path d="" fill="#CACBCC" transform="translate(0,0)"/>
<path d="M0 0 C2 1 2 1 2 1 Z " fill="#DDDEDF" transform="translate(443,390)"/>
<path d="M0 0 C2 1 2 1 2 1 Z " fill="#F6F8F8" transform="translate(608,377)"/>
<path d="M0 0 C2 1 2 1 2 1 Z " fill="#F6F6F7" transform="translate(582,370)"/>
<path d="M0 0 C2 1 2 1 2 1 Z " fill="#F6F6F6" transform="translate(578,368)"/>
<path d="M0 0 C2 1 2 1 2 1 Z " fill="#E7E7E8" transform="translate(397,367)"/>
<path d="M0 0 C2 1 2 1 2 1 Z " fill="#F7F7F7" transform="translate(587,365)"/>
<path d="M0 0 C2 1 2 1 2 1 Z " fill="#F6F6F6" transform="translate(564,360)"/>
<path d="M0 0 C2 1 2 1 2 1 Z " fill="#F7F6F8" transform="translate(540,340)"/>
<path d="" fill="#F9F9FA" transform="translate(0,0)"/>
<path d="M0 0 C2 1 2 1 2 1 Z " fill="#F7F6F7" transform="translate(512,331)"/>
<path d="M0 0 C2 1 2 1 2 1 Z " fill="#CACACA" transform="translate(696,328)"/>
<path d="" fill="#F6F8F8" transform="translate(0,0)"/>
<path d="M0 0 C2 1 2 1 2 1 Z " fill="#CDCECE" transform="translate(684,321)"/>
<path d="" fill="#F7F6F7" transform="translate(0,0)"/>
<path d="" fill="#F7F7F7" transform="translate(0,0)"/>
<path d="" fill="#F6F7F6" transform="translate(0,0)"/>
<path d="M0 0 C2 1 2 1 2 1 Z " fill="#F6F7F8" transform="translate(443,286)"/>
<path d="" fill="#E0E2E2" transform="translate(0,0)"/>
<path d="M0 0 C2 1 2 1 2 1 Z " fill="#F5F7F8" transform="translate(420,280)"/>
<path d="M0 0 C2 1 2 1 2 1 Z " fill="#F5F6F8" transform="translate(430,279)"/>
<path d="" fill="#EDEDED" transform="translate(0,0)"/>
<path d="" fill="#8F9091" transform="translate(0,0)"/>
<path d="" fill="#F5F5F5" transform="translate(0,0)"/>
<path d="M0 0 C2 1 2 1 2 1 Z " fill="#F7F8F8" transform="translate(384,251)"/>
<path d="" fill="#F4F5F6" transform="translate(0,0)"/>
<path d="" fill="#F4F5F6" transform="translate(0,0)"/>
<path d="M0 0 C2 1 2 1 2 1 Z " fill="#F5F6F7" transform="translate(370,243)"/>
<path d="" fill="#F5F5F7" transform="translate(0,0)"/>
<path d="M0 0 C2 1 2 1 2 1 Z " fill="#CDCDCF" transform="translate(516,225)"/>
<path d="" fill="#DFE0E1" transform="translate(0,0)"/>
<path d="M0 0 C2 1 2 1 2 1 Z " fill="#CDD0CF" transform="translate(402,160)"/>
<path d="M0 0 C2 1 2 1 2 1 Z " fill="#898787" transform="translate(278,88)"/>
<path d="M0 0 C2 1 2 1 2 1 Z " fill="#818183" transform="translate(275,88)"/>
<path d="" fill="#000000" transform="translate(0,0)"/>
<path d="" fill="#090A08" transform="translate(0,0)"/>
<path d="" fill="#000000" transform="translate(0,0)"/>
<path d="" fill="#000000" transform="translate(0,0)"/>
<path d="" fill="#A2A3A4" transform="translate(0,0)"/>
<path d="" fill="#959898" transform="translate(0,0)"/>
<path d="" fill="#A6A8A7" transform="translate(0,0)"/>
<path d="" fill="#9E9D9E" transform="translate(0,0)"/>
<path d="" fill="#A2A3A8" transform="translate(0,0)"/>
<path d="" fill="#ABACAB" transform="translate(0,0)"/>
<path d="" fill="#9D9EA0" transform="translate(0,0)"/>
<path d="" fill="#BCBCBC" transform="translate(0,0)"/>
<path d="" fill="#9E9D9F" transform="translate(0,0)"/>
<path d="" fill="#C3C2C5" transform="translate(0,0)"/>
<path d="" fill="#C5C4C5" transform="translate(0,0)"/>
<path d="" fill="#C7C7C7" transform="translate(0,0)"/>
<path d="" fill="#C9C8C7" transform="translate(0,0)"/>
<path d="" fill="#CCCECD" transform="translate(0,0)"/>
<path d="" fill="#C6C6C7" transform="translate(0,0)"/>
<path d="" fill="#D1D1CF" transform="translate(0,0)"/>
<path d="" fill="#D2D4D3" transform="translate(0,0)"/>
<path d="" fill="#D0D1D0" transform="translate(0,0)"/>
<path d="" fill="#CFCFCE" transform="translate(0,0)"/>
<path d="" fill="#D2D4D6" transform="translate(0,0)"/>
<path d="" fill="#CFCED0" transform="translate(0,0)"/>
<path d="" fill="#D7D6D6" transform="translate(0,0)"/>
<path d="" fill="#CECFCF" transform="translate(0,0)"/>
<path d="" fill="#CFCECE" transform="translate(0,0)"/>
<path d="" fill="#D3D5D4" transform="translate(0,0)"/>
<path d="" fill="#DCDCDD" transform="translate(0,0)"/>
<path d="" fill="#CECDCF" transform="translate(0,0)"/>
<path d="" fill="#D0CFD0" transform="translate(0,0)"/>
<path d="" fill="#D2D1D0" transform="translate(0,0)"/>
<path d="" fill="#DEE0DF" transform="translate(0,0)"/>
<path d="" fill="#D3D3D4" transform="translate(0,0)"/>
<path d="" fill="#DADBDC" transform="translate(0,0)"/>
<path d="" fill="#DCDDDD" transform="translate(0,0)"/>
<path d="" fill="#DDDDDE" transform="translate(0,0)"/>
<path d="" fill="#DCDDDC" transform="translate(0,0)"/>
<path d="" fill="#DFDFDF" transform="translate(0,0)"/>
<path d="" fill="#CECFCF" transform="translate(0,0)"/>
<path d="" fill="#CCCFCD" transform="translate(0,0)"/>
<path d="" fill="#CED2CF" transform="translate(0,0)"/>
<path d="" fill="#DCDDDE" transform="translate(0,0)"/>
<path d="" fill="#E0E1E1" transform="translate(0,0)"/>
<path d="" fill="#CBCCCE" transform="translate(0,0)"/>
<path d="" fill="#CFCDCD" transform="translate(0,0)"/>
<path d="" fill="#CCCDCE" transform="translate(0,0)"/>
<path d="" fill="#D3D4D2" transform="translate(0,0)"/>
<path d="" fill="#CDCFCF" transform="translate(0,0)"/>
<path d="" fill="#CDCECF" transform="translate(0,0)"/>
<path d="" fill="#CECECF" transform="translate(0,0)"/>
<path d="" fill="#CFCECF" transform="translate(0,0)"/>
<path d="" fill="#CBCECB" transform="translate(0,0)"/>
<path d="" fill="#CCCECD" transform="translate(0,0)"/>
<path d="" fill="#CECECE" transform="translate(0,0)"/>
<path d="" fill="#EFEEEE" transform="translate(0,0)"/>
<path d="" fill="#D0CECE" transform="translate(0,0)"/>
<path d="" fill="#EFF0F2" transform="translate(0,0)"/>
<path d="" fill="#CFCFD0" transform="translate(0,0)"/>
<path d="" fill="#F0F0F0" transform="translate(0,0)"/>
<path d="" fill="#CFCFD0" transform="translate(0,0)"/>
<path d="" fill="#F1F2F1" transform="translate(0,0)"/>
<path d="" fill="#F4F7F6" transform="translate(0,0)"/>
<path d="" fill="#F2F4F5" transform="translate(0,0)"/>
<path d="" fill="#F6F6F7" transform="translate(0,0)"/>
<path d="" fill="#F2F5F3" transform="translate(0,0)"/>
<path d="" fill="#F5F6F7" transform="translate(0,0)"/>
<path d="" fill="#D0CFD0" transform="translate(0,0)"/>
<path d="" fill="#F7F7F6" transform="translate(0,0)"/>
<path d="" fill="#F6F7F7" transform="translate(0,0)"/>
<path d="" fill="#F6F6F9" transform="translate(0,0)"/>
<path d="" fill="#CECDD0" transform="translate(0,0)"/>
<path d="" fill="#F5F7F6" transform="translate(0,0)"/>
<path d="" fill="#F7F8F8" transform="translate(0,0)"/>
<path d="" fill="#F7F7F8" transform="translate(0,0)"/>
<path d="" fill="#CECFD0" transform="translate(0,0)"/>
<path d="" fill="#F5F5F6" transform="translate(0,0)"/>
<path d="" fill="#CFCFCE" transform="translate(0,0)"/>
<path d="" fill="#D0D2CF" transform="translate(0,0)"/>
<path d="" fill="#F6F7F8" transform="translate(0,0)"/>
<path d="" fill="#D0D0CE" transform="translate(0,0)"/>
<path d="" fill="#F6F6F7" transform="translate(0,0)"/>
<path d="" fill="#CECECE" transform="translate(0,0)"/>
<path d="" fill="#F7F6F7" transform="translate(0,0)"/>
<path d="" fill="#F7F7F8" transform="translate(0,0)"/>
<path d="" fill="#F6F6F8" transform="translate(0,0)"/>
<path d="" fill="#F5F6F5" transform="translate(0,0)"/>
<path d="" fill="#F5F5F6" transform="translate(0,0)"/>
<path d="" fill="#F6F7F7" transform="translate(0,0)"/>
<path d="" fill="#C9C7C6" transform="translate(0,0)"/>
<path d="" fill="#CACBCA" transform="translate(0,0)"/>
<path d="" fill="#F6F7F8" transform="translate(0,0)"/>
<path d="" fill="#F5F7F8" transform="translate(0,0)"/>
<path d="" fill="#CFD2D2" transform="translate(0,0)"/>
<path d="" fill="#D0CECE" transform="translate(0,0)"/>
<path d="" fill="#F9F9F8" transform="translate(0,0)"/>
<path d="" fill="#F5F7F8" transform="translate(0,0)"/>
<path d="" fill="#F7F8F8" transform="translate(0,0)"/>
<path d="" fill="#F7F6F6" transform="translate(0,0)"/>
<path d="" fill="#F6F6F8" transform="translate(0,0)"/>
<path d="" fill="#CFCFD0" transform="translate(0,0)"/>
<path d="" fill="#CECDCD" transform="translate(0,0)"/>
<path d="" fill="#F8F8F8" transform="translate(0,0)"/>
<path d="" fill="#F6F6F7" transform="translate(0,0)"/>
<path d="" fill="#D0D0CF" transform="translate(0,0)"/>
<path d="" fill="#F7F7F7" transform="translate(0,0)"/>
<path d="" fill="#CECFD0" transform="translate(0,0)"/>
<path d="" fill="#D0CFD0" transform="translate(0,0)"/>
<path d="" fill="#F6F7F6" transform="translate(0,0)"/>
<path d="" fill="#CECECD" transform="translate(0,0)"/>
<path d="" fill="#F7F7F9" transform="translate(0,0)"/>
<path d="" fill="#F9F8F9" transform="translate(0,0)"/>
<path d="" fill="#D2CFD3" transform="translate(0,0)"/>
<path d="" fill="#F9F9FC" transform="translate(0,0)"/>
<path d="" fill="#F5F7F7" transform="translate(0,0)"/>
<path d="" fill="#F8F8FA" transform="translate(0,0)"/>
<path d="" fill="#F6F7F8" transform="translate(0,0)"/>
<path d="" fill="#F4F4F4" transform="translate(0,0)"/>
<path d="" fill="#F8F8F9" transform="translate(0,0)"/>
<path d="" fill="#F8F8F8" transform="translate(0,0)"/>
<path d="" fill="#F7F7F8" transform="translate(0,0)"/>
<path d="" fill="#D2D3D4" transform="translate(0,0)"/>
<path d="" fill="#D3D1CF" transform="translate(0,0)"/>
<path d="" fill="#F9F8F9" transform="translate(0,0)"/>
<path d="" fill="#F6F7F9" transform="translate(0,0)"/>
<path d="" fill="#000000" transform="translate(0,0)"/>
<path d="" fill="#F8F8F8" transform="translate(0,0)"/>
<path d="" fill="#F7F8FA" transform="translate(0,0)"/>
<path d="" fill="#CFD0D2" transform="translate(0,0)"/>
<path d="" fill="#F7F7F7" transform="translate(0,0)"/>
<path d="" fill="#F5F6F6" transform="translate(0,0)"/>
<path d="" fill="#F8F8F9" transform="translate(0,0)"/>
<path d="" fill="#F7F7F8" transform="translate(0,0)"/>
<path d="" fill="#F5F6F8" transform="translate(0,0)"/>
<path d="" fill="#F4F5F5" transform="translate(0,0)"/>
<path d="" fill="#F8F8F8" transform="translate(0,0)"/>
<path d="" fill="#F8F8F9" transform="translate(0,0)"/>
<path d="" fill="#F6F7F9" transform="translate(0,0)"/>
<path d="" fill="#F9F8F8" transform="translate(0,0)"/>
<path d="" fill="#F5F6F7" transform="translate(0,0)"/>
<path d="" fill="#F7F9F9" transform="translate(0,0)"/>
<path d="" fill="#F6F9F8" transform="translate(0,0)"/>
<path d="" fill="#F5F5F6" transform="translate(0,0)"/>
<path d="" fill="#CCCACB" transform="translate(0,0)"/>
<path d="" fill="#F8F9F9" transform="translate(0,0)"/>
<path d="" fill="#F7F8F9" transform="translate(0,0)"/>
<path d="" fill="#F7F9F9" transform="translate(0,0)"/>
<path d="" fill="#F8F8FA" transform="translate(0,0)"/>
<path d="" fill="#F6F6F5" transform="translate(0,0)"/>
<path d="" fill="#F6F8F8" transform="translate(0,0)"/>
<path d="" fill="#F6F6F7" transform="translate(0,0)"/>
<path d="" fill="#D0D1D2" transform="translate(0,0)"/>
<path d="" fill="#F7F9FA" transform="translate(0,0)"/>
<path d="" fill="#F8F9F9" transform="translate(0,0)"/>
<path d="" fill="#F6F7F8" transform="translate(0,0)"/>
<path d="" fill="#F6F8F7" transform="translate(0,0)"/>
<path d="" fill="#F4F8F7" transform="translate(0,0)"/>
<path d="" fill="#F5F7F7" transform="translate(0,0)"/>
<path d="" fill="#F6F5F5" transform="translate(0,0)"/>
<path d="" fill="#F4F5F5" transform="translate(0,0)"/>
<path d="" fill="#F8F9F9" transform="translate(0,0)"/>
<path d="" fill="#D1D0CE" transform="translate(0,0)"/>
<path d="" fill="#F7F9F9" transform="translate(0,0)"/>
<path d="" fill="#F9F8F8" transform="translate(0,0)"/>
<path d="" fill="#F6F6F6" transform="translate(0,0)"/>
<path d="" fill="#D0CECF" transform="translate(0,0)"/>
<path d="" fill="#F9F8F9" transform="translate(0,0)"/>
<path d="" fill="#F5F7F8" transform="translate(0,0)"/>
<path d="" fill="#CFCFCD" transform="translate(0,0)"/>
<path d="" fill="#F7F7F9" transform="translate(0,0)"/>
<path d="" fill="#F9F8F8" transform="translate(0,0)"/>
<path d="" fill="#F8FAF9" transform="translate(0,0)"/>
<path d="" fill="#F7F9FB" transform="translate(0,0)"/>
<path d="" fill="#F7F9F9" transform="translate(0,0)"/>
<path d="" fill="#D2D4D2" transform="translate(0,0)"/>
<path d="" fill="#F8F9FB" transform="translate(0,0)"/>
<path d="" fill="#F7F9F8" transform="translate(0,0)"/>
<path d="" fill="#F3F5F6" transform="translate(0,0)"/>
<path d="" fill="#F3F7F4" transform="translate(0,0)"/>
<path d="" fill="#F6F7F7" transform="translate(0,0)"/>
<path d="" fill="#F8F8F9" transform="translate(0,0)"/>
<path d="" fill="#D1D1D3" transform="translate(0,0)"/>
<path d="" fill="#F7F5F6" transform="translate(0,0)"/>
<path d="" fill="#F5F6F6" transform="translate(0,0)"/>
<path d="" fill="#F7F8F8" transform="translate(0,0)"/>
<path d="" fill="#F8F8FA" transform="translate(0,0)"/>
<path d="" fill="#F4F5F6" transform="translate(0,0)"/>
<path d="" fill="#F4F5F6" transform="translate(0,0)"/>
<path d="" fill="#F7F7F7" transform="translate(0,0)"/>
<path d="" fill="#F5F7F7" transform="translate(0,0)"/>
<path d="" fill="#F5F6F8" transform="translate(0,0)"/>
<path d="" fill="#D1CECD" transform="translate(0,0)"/>
<path d="" fill="#F5F5F5" transform="translate(0,0)"/>
<path d="" fill="#FAF9FA" transform="translate(0,0)"/>
<path d="" fill="#D1D1D0" transform="translate(0,0)"/>
<path d="" fill="#F9F8F9" transform="translate(0,0)"/>
<path d="" fill="#F2F3F4" transform="translate(0,0)"/>
<path d="" fill="#F7F8F9" transform="translate(0,0)"/>
<path d="" fill="#F4F5F4" transform="translate(0,0)"/>
<path d="" fill="#F7F8F9" transform="translate(0,0)"/>
<path d="" fill="#F6F6F6" transform="translate(0,0)"/>
<path d="" fill="#F5F6F6" transform="translate(0,0)"/>
<path d="" fill="#F7F9FA" transform="translate(0,0)"/>
<path d="" fill="#F6F7F6" transform="translate(0,0)"/>
<path d="" fill="#F6F7F6" transform="translate(0,0)"/>
<path d="" fill="#F0F1F0" transform="translate(0,0)"/>
<path d="" fill="#F0F1F2" transform="translate(0,0)"/>
<path d="" fill="#F7F9F8" transform="translate(0,0)"/>
<path d="" fill="#F9F9FA" transform="translate(0,0)"/>
<path d="" fill="#F0F1F1" transform="translate(0,0)"/>
<path d="" fill="#F6F6F7" transform="translate(0,0)"/>
<path d="" fill="#D1D1D0" transform="translate(0,0)"/>
<path d="" fill="#F7F9F7" transform="translate(0,0)"/>
<path d="" fill="#EFF2F2" transform="translate(0,0)"/>
<path d="" fill="#FAF8F9" transform="translate(0,0)"/>
<path d="" fill="#F6F7F7" transform="translate(0,0)"/>
<path d="" fill="#F5F7F9" transform="translate(0,0)"/>
<path d="" fill="#F8F8F9" transform="translate(0,0)"/>
<path d="" fill="#F7F7F8" transform="translate(0,0)"/>
<path d="" fill="#EDEDEF" transform="translate(0,0)"/>
<path d="" fill="#F9F9FA" transform="translate(0,0)"/>
<path d="" fill="#D2D3D3" transform="translate(0,0)"/>
<path d="" fill="#F6F7F9" transform="translate(0,0)"/>
<path d="" fill="#F6F6F7" transform="translate(0,0)"/>
<path d="" fill="#D1D4D5" transform="translate(0,0)"/>
<path d="" fill="#F6F8F9" transform="translate(0,0)"/>
<path d="" fill="#EBEDEB" transform="translate(0,0)"/>
<path d="" fill="#FDFAFB" transform="translate(0,0)"/>
<path d="" fill="#F7F6F8" transform="translate(0,0)"/>
<path d="" fill="#F9F9FA" transform="translate(0,0)"/>
<path d="" fill="#E5E6E7" transform="translate(0,0)"/>
<path d="" fill="#CBCBCD" transform="translate(0,0)"/>
<path d="" fill="#F7F7F9" transform="translate(0,0)"/>
<path d="" fill="#F8F9F9" transform="translate(0,0)"/>
<path d="" fill="#D1D2D2" transform="translate(0,0)"/>
<path d="" fill="#000000" transform="translate(0,0)"/>
<path d="" fill="#CACACC" transform="translate(0,0)"/>
<path d="" fill="#F6F8F8" transform="translate(0,0)"/>
<path d="" fill="#CECFD1" transform="translate(0,0)"/>
<path d="" fill="#D2CFCE" transform="translate(0,0)"/>
<path d="" fill="#F6F6F7" transform="translate(0,0)"/>
<path d="" fill="#F8F8F8" transform="translate(0,0)"/>
<path d="" fill="#E7E6E8" transform="translate(0,0)"/>
<path d="" fill="#F8F8F7" transform="translate(0,0)"/>
<path d="" fill="#F5F5F5" transform="translate(0,0)"/>
<path d="" fill="#F9F9FB" transform="translate(0,0)"/>
<path d="" fill="#D1D3D2" transform="translate(0,0)"/>
<path d="" fill="#D1D3D3" transform="translate(0,0)"/>
<path d="" fill="#F5F5F6" transform="translate(0,0)"/>
<path d="" fill="#F6F6F5" transform="translate(0,0)"/>
<path d="" fill="#F5F5F5" transform="translate(0,0)"/>
<path d="" fill="#F9F9FB" transform="translate(0,0)"/>
<path d="" fill="#D1D2D3" transform="translate(0,0)"/>
<path d="" fill="#F9FBFC" transform="translate(0,0)"/>
<path d="" fill="#F5F6F7" transform="translate(0,0)"/>
<path d="" fill="#D5D5D5" transform="translate(0,0)"/>
<path d="" fill="#CECFCE" transform="translate(0,0)"/>
<path d="" fill="#CFD1D1" transform="translate(0,0)"/>
<path d="" fill="#F9F9F8" transform="translate(0,0)"/>
<path d="" fill="#D1D1D0" transform="translate(0,0)"/>
<path d="" fill="#F7F7F9" transform="translate(0,0)"/>
<path d="" fill="#FAF9FA" transform="translate(0,0)"/>
<path d="" fill="#F7F8F7" transform="translate(0,0)"/>
<path d="" fill="#F8F7F8" transform="translate(0,0)"/>
<path d="" fill="#F5F7F6" transform="translate(0,0)"/>
<path d="" fill="#F5F6F6" transform="translate(0,0)"/>
<path d="" fill="#ECECEE" transform="translate(0,0)"/>
<path d="" fill="#F9FBFA" transform="translate(0,0)"/>
<path d="" fill="#F8F7F8" transform="translate(0,0)"/>
<path d="" fill="#F5F5F6" transform="translate(0,0)"/>
<path d="" fill="#F5F6F7" transform="translate(0,0)"/>
<path d="" fill="#E0DEDD" transform="translate(0,0)"/>
<path d="" fill="#F6F7F9" transform="translate(0,0)"/>
<path d="" fill="#F6F7F6" transform="translate(0,0)"/>
<path d="" fill="#CFD0CF" transform="translate(0,0)"/>
<path d="" fill="#F6F7F8" transform="translate(0,0)"/>
<path d="" fill="#F6F6F7" transform="translate(0,0)"/>
<path d="" fill="#DFDFDE" transform="translate(0,0)"/>
<path d="" fill="#CFCFD0" transform="translate(0,0)"/>
<path d="" fill="#F6F9F9" transform="translate(0,0)"/>
<path d="" fill="#F4F7F7" transform="translate(0,0)"/>
<path d="" fill="#F5F5F5" transform="translate(0,0)"/>
<path d="" fill="#F5F7F8" transform="translate(0,0)"/>
<path d="" fill="#CDD0CF" transform="translate(0,0)"/>
<path d="" fill="#F5F6F6" transform="translate(0,0)"/>
<path d="" fill="#F5F5F7" transform="translate(0,0)"/>
<path d="" fill="#DCDDDC" transform="translate(0,0)"/>
<path d="" fill="#DADCDA" transform="translate(0,0)"/>
<path d="" fill="#F4F5F5" transform="translate(0,0)"/>
<path d="" fill="#C0C2C5" transform="translate(0,0)"/>
<path d="" fill="#F6F5F7" transform="translate(0,0)"/>
<path d="" fill="#F5F5F8" transform="translate(0,0)"/>
<path d="" fill="#C9C9C9" transform="translate(0,0)"/>
<path d="" fill="#F5F5F6" transform="translate(0,0)"/>
<path d="" fill="#F5F6F7" transform="translate(0,0)"/>
<path d="" fill="#C7C7C5" transform="translate(0,0)"/>
<path d="" fill="#F7F5F8" transform="translate(0,0)"/>
<path d="" fill="#F4F6F8" transform="translate(0,0)"/>
<path d="" fill="#F4F5F6" transform="translate(0,0)"/>
<path d="" fill="#E7E9E9" transform="translate(0,0)"/>
<path d="" fill="#F5F6F6" transform="translate(0,0)"/>
<path d="" fill="#F6F6F6" transform="translate(0,0)"/>
<path d="" fill="#F3F5F6" transform="translate(0,0)"/>
<path d="" fill="#CCCDCC" transform="translate(0,0)"/>
<path d="" fill="#F6F5F6" transform="translate(0,0)"/>
<path d="" fill="#DCDEDE" transform="translate(0,0)"/>
<path d="" fill="#DCDCDE" transform="translate(0,0)"/>
<path d="" fill="#C4C4C7" transform="translate(0,0)"/>
<path d="" fill="#DFE0DF" transform="translate(0,0)"/>
<path d="" fill="#F2F4F6" transform="translate(0,0)"/>
<path d="" fill="#DADDDC" transform="translate(0,0)"/>
<path d="" fill="#E5E9E9" transform="translate(0,0)"/>
<path d="" fill="#F4F4F4" transform="translate(0,0)"/>
<path d="" fill="#DDDDDC" transform="translate(0,0)"/>
<path d="" fill="#CACDCB" transform="translate(0,0)"/>
<path d="" fill="#E4E6E8" transform="translate(0,0)"/>
<path d="" fill="#BCBFBD" transform="translate(0,0)"/>
<path d="" fill="#C2C4C2" transform="translate(0,0)"/>
<path d="" fill="#F2F3F5" transform="translate(0,0)"/>
<path d="" fill="#BDBDBC" transform="translate(0,0)"/>
<path d="" fill="#C1C3C3" transform="translate(0,0)"/>
<path d="" fill="#E4E5E7" transform="translate(0,0)"/>
<path d="" fill="#F9F8F8" transform="translate(0,0)"/>
<path d="" fill="#F5F4F6" transform="translate(0,0)"/>
<path d="" fill="#F1F3F3" transform="translate(0,0)"/>
<path d="" fill="#DDDDDC" transform="translate(0,0)"/>
<path d="" fill="#E2E7E7" transform="translate(0,0)"/>
<path d="" fill="#FAFAFB" transform="translate(0,0)"/>
<path d="" fill="#F9FAF9" transform="translate(0,0)"/>
<path d="" fill="#DDDFE0" transform="translate(0,0)"/>
<path d="" fill="#DFE0DF" transform="translate(0,0)"/>
<path d="" fill="#B9B9BA" transform="translate(0,0)"/>
<path d="" fill="#BBBABB" transform="translate(0,0)"/>
<path d="" fill="#EEF3F1" transform="translate(0,0)"/>
<path d="" fill="#B3B1B5" transform="translate(0,0)"/>
<path d="" fill="#F2F4F2" transform="translate(0,0)"/>
<path d="" fill="#F1F1F4" transform="translate(0,0)"/>
<path d="" fill="#F1F4F5" transform="translate(0,0)"/>
<path d="" fill="#DFE3E1" transform="translate(0,0)"/>
<path d="" fill="#A9A7A5" transform="translate(0,0)"/>
<path d="" fill="#F2F3F3" transform="translate(0,0)"/>
<path d="" fill="#E2E4E2" transform="translate(0,0)"/>
<path d="" fill="#E1E2E1" transform="translate(0,0)"/>
<path d="" fill="#979496" transform="translate(0,0)"/>
<path d="" fill="#9D9D9C" transform="translate(0,0)"/>
<path d="" fill="#F0F2F2" transform="translate(0,0)"/>
<path d="" fill="#F1F0F4" transform="translate(0,0)"/>
<path d="" fill="#F2F3F3" transform="translate(0,0)"/>
<path d="" fill="#F0EFF1" transform="translate(0,0)"/>
<path d="" fill="#E6E6E5" transform="translate(0,0)"/>
<path d="" fill="#E3E5E5" transform="translate(0,0)"/>
<path d="" fill="#E1E4E6" transform="translate(0,0)"/>
<path d="" fill="#EFF2F2" transform="translate(0,0)"/>
<path d="" fill="#F1F1F3" transform="translate(0,0)"/>
<path d="" fill="#EFF0F1" transform="translate(0,0)"/>
<path d="" fill="#F2F1F3" transform="translate(0,0)"/>
<path d="" fill="#F0F2F2" transform="translate(0,0)"/>
<path d="" fill="#E5E8E6" transform="translate(0,0)"/>
<path d="" fill="#F2F2F3" transform="translate(0,0)"/>
<path d="" fill="#E9E8E9" transform="translate(0,0)"/>
<path d="" fill="#EFF0F1" transform="translate(0,0)"/>
<path d="" fill="#E7E8E9" transform="translate(0,0)"/>
<path d="" fill="#E5E7E9" transform="translate(0,0)"/>
<path d="" fill="#E4E7E7" transform="translate(0,0)"/>
<path d="" fill="#FAFAFA" transform="translate(0,0)"/>
<path d="" fill="#F3F2F4" transform="translate(0,0)"/>
<path d="" fill="#F3F4F4" transform="translate(0,0)"/>
<path d="" fill="#EBE8EA" transform="translate(0,0)"/>
<path d="" fill="#F4F4F6" transform="translate(0,0)"/>
<path d="" fill="#E9EBEA" transform="translate(0,0)"/>
<path d="" fill="#DFE0E3" transform="translate(0,0)"/>
<path d="" fill="#F1F3F4" transform="translate(0,0)"/>
<path d="" fill="#F9F6FB" transform="translate(0,0)"/>
<path d="" fill="#F3F5F6" transform="translate(0,0)"/>
<path d="" fill="#F3F2F4" transform="translate(0,0)"/>
<path d="" fill="#DEE0E0" transform="translate(0,0)"/>
<path d="" fill="#F4F6F7" transform="translate(0,0)"/>
<path d="" fill="#F4F5F7" transform="translate(0,0)"/>
<path d="" fill="#DEDFE1" transform="translate(0,0)"/>
<path d="" fill="#C1C1C2" transform="translate(0,0)"/>
<path d="" fill="#ECEEED" transform="translate(0,0)"/>
<path d="" fill="#EAECED" transform="translate(0,0)"/>
<path d="" fill="#F4F4F3" transform="translate(0,0)"/>
<path d="" fill="#F3F4F6" transform="translate(0,0)"/>
<path d="" fill="#F0F1F1" transform="translate(0,0)"/>
<path d="" fill="#F3F4F3" transform="translate(0,0)"/>
<path d="" fill="#F3F4F4" transform="translate(0,0)"/>
<path d="" fill="#F1F3F3" transform="translate(0,0)"/>
<path d="" fill="#F1F3F3" transform="translate(0,0)"/>
<path d="" fill="#DDDEE1" transform="translate(0,0)"/>
<path d="" fill="#FAFAFA" transform="translate(0,0)"/>
<path d="" fill="#F2F2F7" transform="translate(0,0)"/>
<path d="" fill="#F4F3F4" transform="translate(0,0)"/>
<path d="" fill="#F9F8FB" transform="translate(0,0)"/>
<path d="" fill="#EDEDED" transform="translate(0,0)"/>
<path d="" fill="#FBFAFA" transform="translate(0,0)"/>
<path d="" fill="#F1F3F5" transform="translate(0,0)"/>
<path d="" fill="#CECFCF" transform="translate(0,0)"/>
<path d="" fill="#F3F2F5" transform="translate(0,0)"/>
<path d="" fill="#F3F3F4" transform="translate(0,0)"/>
<path d="" fill="#F3F5F4" transform="translate(0,0)"/>
<path d="" fill="#D2D2D1" transform="translate(0,0)"/>
<path d="" fill="#F2F3F4" transform="translate(0,0)"/>
<path d="" fill="#D0D2CF" transform="translate(0,0)"/>
<path d="" fill="#F9F7FA" transform="translate(0,0)"/>
<path d="" fill="#F0F2F2" transform="translate(0,0)"/>
<path d="" fill="#F0F1F1" transform="translate(0,0)"/>
<path d="" fill="#D4D3D1" transform="translate(0,0)"/>
<path d="" fill="#F0EFF1" transform="translate(0,0)"/>
<path d="" fill="#F9FAF8" transform="translate(0,0)"/>
<path d="" fill="#F0F1F1" transform="translate(0,0)"/>
<path d="" fill="#EEEFF1" transform="translate(0,0)"/>
<path d="" fill="#EDEFF0" transform="translate(0,0)"/>
<path d="" fill="#F8F8FA" transform="translate(0,0)"/>
<path d="" fill="#D9D8DA" transform="translate(0,0)"/>
<path d="" fill="#F8FAFA" transform="translate(0,0)"/>
<path d="" fill="#FAFAFB" transform="translate(0,0)"/>
<path d="" fill="#EAECED" transform="translate(0,0)"/>
<path d="" fill="#F8F7F9" transform="translate(0,0)"/>
<path d="" fill="#E6E9EB" transform="translate(0,0)"/>
<path d="" fill="#D9D9D9" transform="translate(0,0)"/>
<path d="" fill="#C9CACA" transform="translate(0,0)"/>
<path d="" fill="#F8F9F9" transform="translate(0,0)"/>
<path d="" fill="#C9CACA" transform="translate(0,0)"/>
<path d="" fill="#E8E9E9" transform="translate(0,0)"/>
<path d="" fill="#E9E9EA" transform="translate(0,0)"/>
<path d="" fill="#E6E7E8" transform="translate(0,0)"/>
<path d="" fill="#E7E6E6" transform="translate(0,0)"/>
<path d="" fill="#DADBDD" transform="translate(0,0)"/>
<path d="" fill="#E4E6E9" transform="translate(0,0)"/>
<path d="" fill="#CACACC" transform="translate(0,0)"/>
<path d="" fill="#E3E6E3" transform="translate(0,0)"/>
<path d="" fill="#DCDCDF" transform="translate(0,0)"/>
<path d="" fill="#E9EAEB" transform="translate(0,0)"/>
<path d="" fill="#E0E1E3" transform="translate(0,0)"/>
<path d="" fill="#E7EAE9" transform="translate(0,0)"/>
<path d="" fill="#DFE0E0" transform="translate(0,0)"/>
<path d="" fill="#E0E2E2" transform="translate(0,0)"/>
<path d="" fill="#DBDBDB" transform="translate(0,0)"/>
<path d="" fill="#F8FAFB" transform="translate(0,0)"/>
<path d="" fill="#DFE1E1" transform="translate(0,0)"/>
<path d="" fill="#DDDEE0" transform="translate(0,0)"/>
<path d="" fill="#DDDBDB" transform="translate(0,0)"/>
<path d="" fill="#FAFAFA" transform="translate(0,0)"/>
<path d="" fill="#EEEFF0" transform="translate(0,0)"/>
<path d="" fill="#F0EFEF" transform="translate(0,0)"/>
<path d="" fill="#EFEEF0" transform="translate(0,0)"/>
<path d="" fill="#DCDBDE" transform="translate(0,0)"/>
<path d="" fill="#C8C7CA" transform="translate(0,0)"/>
<path d="" fill="#DDDEDD" transform="translate(0,0)"/>
<path d="" fill="#F9FAFA" transform="translate(0,0)"/>
<path d="" fill="#F2F2F2" transform="translate(0,0)"/>
<path d="" fill="#E1E2E2" transform="translate(0,0)"/>
<path d="" fill="#EFF1F2" transform="translate(0,0)"/>
<path d="" fill="#DCDBDE" transform="translate(0,0)"/>
<path d="" fill="#EFF0F1" transform="translate(0,0)"/>
<path d="" fill="#F0F1F2" transform="translate(0,0)"/>
<path d="" fill="#EEEEEE" transform="translate(0,0)"/>
<path d="" fill="#E2E0E3" transform="translate(0,0)"/>
<path d="" fill="#E9ECEC" transform="translate(0,0)"/>
<path d="" fill="#DAD9D9" transform="translate(0,0)"/>
<path d="" fill="#F8F9F9" transform="translate(0,0)"/>
<path d="" fill="#EAEAEC" transform="translate(0,0)"/>
<path d="" fill="#EEEFF0" transform="translate(0,0)"/>
<path d="" fill="#FAFBFB" transform="translate(0,0)"/>
<path d="" fill="#F0F0F1" transform="translate(0,0)"/>
<path d="" fill="#F3F3F3" transform="translate(0,0)"/>
<path d="" fill="#F4F4F6" transform="translate(0,0)"/>
<path d="" fill="#F7F9FA" transform="translate(0,0)"/>
<path d="" fill="#F2F3F4" transform="translate(0,0)"/>
<path d="" fill="#F9FAF8" transform="translate(0,0)"/>
<path d="" fill="#F2F2F2" transform="translate(0,0)"/>
<path d="" fill="#E3E4E5" transform="translate(0,0)"/>
<path d="" fill="#E6E8E8" transform="translate(0,0)"/>
<path d="" fill="#F3F4F5" transform="translate(0,0)"/>
<path d="" fill="#F2F3F4" transform="translate(0,0)"/>
<path d="" fill="#D8D9DA" transform="translate(0,0)"/>
<path d="" fill="#F8FAFC" transform="translate(0,0)"/>
<path d="" fill="#C6C8C9" transform="translate(0,0)"/>
<path d="" fill="#F0F3F4" transform="translate(0,0)"/>
<path d="" fill="#F9FAF9" transform="translate(0,0)"/>
<path d="" fill="#E6E5E6" transform="translate(0,0)"/>
<path d="" fill="#F9F9FB" transform="translate(0,0)"/>
<path d="" fill="#F3F3F3" transform="translate(0,0)"/>
<path d="" fill="#F7F8FA" transform="translate(0,0)"/>
<path d="" fill="#C9C8C8" transform="translate(0,0)"/>
<path d="" fill="#E5E8E7" transform="translate(0,0)"/>
<path d="" fill="#E2E4E4" transform="translate(0,0)"/>
<path d="" fill="#F3F4F5" transform="translate(0,0)"/>
<path d="" fill="#DDDFDE" transform="translate(0,0)"/>
<path d="" fill="#D8DAD8" transform="translate(0,0)"/>
<path d="" fill="#E4E5E5" transform="translate(0,0)"/>
<path d="" fill="#DFE0DE" transform="translate(0,0)"/>
<path d="" fill="#F9FAFB" transform="translate(0,0)"/>
<path d="" fill="#F8F9FB" transform="translate(0,0)"/>
<path d="" fill="#C8C7C9" transform="translate(0,0)"/>
<path d="" fill="#F4F3F6" transform="translate(0,0)"/>
<path d="" fill="#D7D6D9" transform="translate(0,0)"/>
<path d="" fill="#F9FAFB" transform="translate(0,0)"/>
<path d="" fill="#C8C9CA" transform="translate(0,0)"/>
<path d="" fill="#F5F4F4" transform="translate(0,0)"/>
<path d="" fill="#F6F5F5" transform="translate(0,0)"/>
<path d="" fill="#DBDBDB" transform="translate(0,0)"/>
<path d="" fill="#F2F4F4" transform="translate(0,0)"/>
<path d="" fill="#F5F5F6" transform="translate(0,0)"/>
<path d="" fill="#C9C9CB" transform="translate(0,0)"/>
<path d="" fill="#F3F6F4" transform="translate(0,0)"/>
<path d="" fill="#F3F5F6" transform="translate(0,0)"/>
<path d="" fill="#DBDDDC" transform="translate(0,0)"/>
<path d="" fill="#F8FAFB" transform="translate(0,0)"/>
<path d="" fill="#DADBDB" transform="translate(0,0)"/>
<path d="" fill="#DCDCDD" transform="translate(0,0)"/>
<path d="" fill="#DADADA" transform="translate(0,0)"/>
<path d="" fill="#D8D8D8" transform="translate(0,0)"/>
<path d="" fill="#F5F6F8" transform="translate(0,0)"/>
<path d="" fill="#D9DBDA" transform="translate(0,0)"/>
<path d="" fill="#E8E8E9" transform="translate(0,0)"/>
<path d="" fill="#F4F5F5" transform="translate(0,0)"/>
<path d="" fill="#F9FAF9" transform="translate(0,0)"/>
<path d="" fill="#F9F9F9" transform="translate(0,0)"/>
<path d="" fill="#DBDDDE" transform="translate(0,0)"/>
<path d="" fill="#CBCACB" transform="translate(0,0)"/>
<path d="" fill="#F5F5F5" transform="translate(0,0)"/>
<path d="" fill="#F5F5F4" transform="translate(0,0)"/>
<path d="" fill="#E9E9EA" transform="translate(0,0)"/>
<path d="" fill="#F9F9FA" transform="translate(0,0)"/>
<path d="" fill="#D4D5D4" transform="translate(0,0)"/>
<path d="" fill="#FAFBFB" transform="translate(0,0)"/>
<path d="" fill="#DBDDDF" transform="translate(0,0)"/>
<path d="" fill="#CBCCCC" transform="translate(0,0)"/>
<path d="" fill="#DDDCDE" transform="translate(0,0)"/>
<path d="" fill="#FBFBFC" transform="translate(0,0)"/>
<path d="" fill="#F9FBFB" transform="translate(0,0)"/>
<path d="" fill="#CBCCCE" transform="translate(0,0)"/>
<path d="" fill="#F4F5F5" transform="translate(0,0)"/>
<path d="" fill="#C3C3C3" transform="translate(0,0)"/>
<path d="" fill="#F4F7F6" transform="translate(0,0)"/>
<path d="" fill="#BCBCBC" transform="translate(0,0)"/>
<path d="" fill="#F5F6F7" transform="translate(0,0)"/>
<path d="" fill="#F5F6F6" transform="translate(0,0)"/>
<path d="" fill="#C9CACC" transform="translate(0,0)"/>
<path d="" fill="#F6F6F7" transform="translate(0,0)"/>
<path d="" fill="#F6F6F7" transform="translate(0,0)"/>
<path d="" fill="#FAFAFB" transform="translate(0,0)"/>
<path d="" fill="#F5F6F8" transform="translate(0,0)"/>
<path d="" fill="#F7F7F7" transform="translate(0,0)"/>
<path d="" fill="#9D9F9C" transform="translate(0,0)"/>
<path d="" fill="#F7F6F8" transform="translate(0,0)"/>
<path d="" fill="#F6F7F7" transform="translate(0,0)"/>
<path d="" fill="#F6F6F9" transform="translate(0,0)"/>
<path d="" fill="#DFDFE3" transform="translate(0,0)"/>
<path d="" fill="#F6F7F8" transform="translate(0,0)"/>
<path d="" fill="#F7F7F7" transform="translate(0,0)"/>
<path d="" fill="#F7F6F9" transform="translate(0,0)"/>
<path d="" fill="#DFE1E2" transform="translate(0,0)"/>
<path d="" fill="#F6F6F7" transform="translate(0,0)"/>
<path d="" fill="#F5F6F6" transform="translate(0,0)"/>
<path d="" fill="#E2E3E4" transform="translate(0,0)"/>
<path d="" fill="#F1F1F2" transform="translate(0,0)"/>
<path d="" fill="#F9FAFC" transform="translate(0,0)"/>
<path d="" fill="#F5F7F7" transform="translate(0,0)"/>
<path d="" fill="#F8F8F9" transform="translate(0,0)"/>
<path d="" fill="#F9F8FA" transform="translate(0,0)"/>
<path d="" fill="#FAFAF8" transform="translate(0,0)"/>
<path d="" fill="#F6F7F7" transform="translate(0,0)"/>
<path d="" fill="#F7F7F8" transform="translate(0,0)"/>
<path d="" fill="#F6F8F9" transform="translate(0,0)"/>
<path d="" fill="#E5E6E7" transform="translate(0,0)"/>
<path d="" fill="#F8F8F8" transform="translate(0,0)"/>
<path d="" fill="#F8F7F7" transform="translate(0,0)"/>
<path d="" fill="#F6F7F9" transform="translate(0,0)"/>
<path d="" fill="#F6F8F8" transform="translate(0,0)"/>
<path d="" fill="#F7F6F6" transform="translate(0,0)"/>
<path d="" fill="#F6F8F8" transform="translate(0,0)"/>
<path d="" fill="#E6E9E9" transform="translate(0,0)"/>
<path d="" fill="#E8EBE8" transform="translate(0,0)"/>
<path d="" fill="#F8F8F8" transform="translate(0,0)"/>
<path d="" fill="#F8F9F8" transform="translate(0,0)"/>
<path d="" fill="#F9FAFC" transform="translate(0,0)"/>
<path d="" fill="#F7F7FA" transform="translate(0,0)"/>
<path d="" fill="#EAEBEC" transform="translate(0,0)"/>
<path d="" fill="#EBEAEB" transform="translate(0,0)"/>
<path d="" fill="#F5F5F8" transform="translate(0,0)"/>
<path d="" fill="#C0C2C2" transform="translate(0,0)"/>
<path d="" fill="#F5F7F8" transform="translate(0,0)"/>
<path d="" fill="#F5F6F7" transform="translate(0,0)"/>
<path d="" fill="#F7F9FC" transform="translate(0,0)"/>
<path d="" fill="#ECEEF0" transform="translate(0,0)"/>
<path d="" fill="#C7C9C9" transform="translate(0,0)"/>
<path d="" fill="#F5F6F7" transform="translate(0,0)"/>
<path d="" fill="#EFEFF1" transform="translate(0,0)"/>
<path d="" fill="#F8F9FC" transform="translate(0,0)"/>
<path d="" fill="#C5C7C7" transform="translate(0,0)"/>
<path d="" fill="#08090A" transform="translate(0,0)"/>
<path d="" fill="#F7F8F9" transform="translate(0,0)"/>
<path d="" fill="#F6F6F8" transform="translate(0,0)"/>
<path d="" fill="#F8F9FA" transform="translate(0,0)"/>
<path d="" fill="#C9CDCC" transform="translate(0,0)"/>
<path d="" fill="#F9F7F9" transform="translate(0,0)"/>
<path d="" fill="#FBFAFC" transform="translate(0,0)"/>
<path d="" fill="#C7CACA" transform="translate(0,0)"/>
<path d="" fill="#F8F7F8" transform="translate(0,0)"/>
<path d="" fill="#F7F7F7" transform="translate(0,0)"/>
<path d="" fill="#F9FBFA" transform="translate(0,0)"/>
<path d="" fill="#F7F7F7" transform="translate(0,0)"/>
<path d="" fill="#F6F6F8" transform="translate(0,0)"/>
<path d="" fill="#FAFAF9" transform="translate(0,0)"/>
<path d="" fill="#CDCDD1" transform="translate(0,0)"/>
<path d="" fill="#CCCDCC" transform="translate(0,0)"/>
<path d="" fill="#F7F8F8" transform="translate(0,0)"/>
<path d="" fill="#F6F6F7" transform="translate(0,0)"/>
<path d="" fill="#F7F8F7" transform="translate(0,0)"/>
<path d="" fill="#CBCBC8" transform="translate(0,0)"/>
<path d="" fill="#F6F5F8" transform="translate(0,0)"/>
<path d="" fill="#F7F7F9" transform="translate(0,0)"/>
<path d="" fill="#F8F8FB" transform="translate(0,0)"/>
<path d="" fill="#F9FAFA" transform="translate(0,0)"/>
<path d="" fill="#F6F7F8" transform="translate(0,0)"/>
<path d="" fill="#F5F6F8" transform="translate(0,0)"/>
<path d="" fill="#F9F8F9" transform="translate(0,0)"/>
<path d="" fill="#F5F7F6" transform="translate(0,0)"/>
<path d="" fill="#FAF7F7" transform="translate(0,0)"/>
<path d="" fill="#F8F6FA" transform="translate(0,0)"/>
<path d="" fill="#F6F6F7" transform="translate(0,0)"/>
<path d="" fill="#F7F6F7" transform="translate(0,0)"/>
<path d="" fill="#F7F7F9" transform="translate(0,0)"/>
<path d="" fill="#C9CDCE" transform="translate(0,0)"/>
<path d="" fill="#F6F8F8" transform="translate(0,0)"/>
<path d="" fill="#F6F7F8" transform="translate(0,0)"/>
<path d="" fill="#F3F6F8" transform="translate(0,0)"/>
<path d="" fill="#F5F7F7" transform="translate(0,0)"/>
<path d="" fill="#F7F8F9" transform="translate(0,0)"/>
<path d="" fill="#D0CFD0" transform="translate(0,0)"/>
<path d="" fill="#F5F7F6" transform="translate(0,0)"/>
<path d="" fill="#F7F7F8" transform="translate(0,0)"/>
<path d="" fill="#CFCECF" transform="translate(0,0)"/>
<path d="" fill="#F7F7F8" transform="translate(0,0)"/>
<path d="" fill="#F8F7F9" transform="translate(0,0)"/>
<path d="" fill="#F9F9FA" transform="translate(0,0)"/>
<path d="" fill="#F7F6F9" transform="translate(0,0)"/>
<path d="" fill="#F8F8F9" transform="translate(0,0)"/>
<path d="" fill="#CCCFCC" transform="translate(0,0)"/>
<path d="" fill="#F6F6F7" transform="translate(0,0)"/>
<path d="" fill="#F7F6F9" transform="translate(0,0)"/>
<path d="" fill="#F8F8F8" transform="translate(0,0)"/>
<path d="" fill="#F7F7F8" transform="translate(0,0)"/>
<path d="" fill="#F7F7F8" transform="translate(0,0)"/>
<path d="" fill="#F6F7F8" transform="translate(0,0)"/>
<path d="" fill="#CCCCCB" transform="translate(0,0)"/>
<path d="" fill="#F6F7F9" transform="translate(0,0)"/>
<path d="" fill="#F9F7F9" transform="translate(0,0)"/>
<path d="" fill="#CCCDCD" transform="translate(0,0)"/>
<path d="" fill="#F6F6F7" transform="translate(0,0)"/>
<path d="" fill="#F6F8F9" transform="translate(0,0)"/>
<path d="" fill="#F8F9F9" transform="translate(0,0)"/>
<path d="" fill="#F4F6F6" transform="translate(0,0)"/>
<path d="" fill="#CBCBCD" transform="translate(0,0)"/>
<path d="" fill="#F5F6F7" transform="translate(0,0)"/>
<path d="" fill="#F6F6F7" transform="translate(0,0)"/>
<path d="" fill="#F9F8F9" transform="translate(0,0)"/>
<path d="" fill="#F6F6F7" transform="translate(0,0)"/>
<path d="" fill="#C9CBCC" transform="translate(0,0)"/>
<path d="" fill="#F7F6F7" transform="translate(0,0)"/>
<path d="" fill="#F8F9F9" transform="translate(0,0)"/>
<path d="" fill="#F7F7F8" transform="translate(0,0)"/>
<path d="" fill="#F5F8F8" transform="translate(0,0)"/>
<path d="" fill="#F3F4F3" transform="translate(0,0)"/>
<path d="" fill="#CDCCCC" transform="translate(0,0)"/>
<path d="" fill="#F6F7F7" transform="translate(0,0)"/>
<path d="" fill="#F2F3F4" transform="translate(0,0)"/>
<path d="" fill="#F7F6F9" transform="translate(0,0)"/>
<path d="" fill="#C8CBCD" transform="translate(0,0)"/>
<path d="" fill="#F9F8F9" transform="translate(0,0)"/>
<path d="" fill="#F5F6F8" transform="translate(0,0)"/>
<path d="" fill="#CBCDCB" transform="translate(0,0)"/>
<path d="" fill="#F6F7F8" transform="translate(0,0)"/>
<path d="" fill="#F8F8F8" transform="translate(0,0)"/>
<path d="" fill="#F5F6F7" transform="translate(0,0)"/>
<path d="" fill="#D1CFD3" transform="translate(0,0)"/>
<path d="" fill="#F6F8F9" transform="translate(0,0)"/>
<path d="" fill="#F6F8F7" transform="translate(0,0)"/>
<path d="" fill="#F7F7F9" transform="translate(0,0)"/>
<path d="" fill="#F7F8F8" transform="translate(0,0)"/>
<path d="" fill="#F8FBFB" transform="translate(0,0)"/>
<path d="" fill="#E6E7E9" transform="translate(0,0)"/>
<path d="" fill="#F6F6F7" transform="translate(0,0)"/>
<path d="" fill="#F6F7F7" transform="translate(0,0)"/>
<path d="" fill="#F8F8F8" transform="translate(0,0)"/>
<path d="" fill="#F6F7F8" transform="translate(0,0)"/>
<path d="" fill="#CDCECF" transform="translate(0,0)"/>
<path d="" fill="#F8F7F7" transform="translate(0,0)"/>
<path d="" fill="#F8F8FA" transform="translate(0,0)"/>
<path d="" fill="#F9F9FA" transform="translate(0,0)"/>
<path d="" fill="#C6C4C6" transform="translate(0,0)"/>
<path d="" fill="#F6F8F8" transform="translate(0,0)"/>
<path d="" fill="#F4F7F8" transform="translate(0,0)"/>
<path d="" fill="#CECECE" transform="translate(0,0)"/>
<path d="" fill="#EEEEF0" transform="translate(0,0)"/>
<path d="" fill="#F6F5F8" transform="translate(0,0)"/>
<path d="" fill="#F7F6F7" transform="translate(0,0)"/>
<path d="" fill="#F7F8F9" transform="translate(0,0)"/>
<path d="" fill="#D8DADA" transform="translate(0,0)"/>
<path d="" fill="#CFCCCE" transform="translate(0,0)"/>
<path d="" fill="#F6F6F6" transform="translate(0,0)"/>
<path d="" fill="#D5D6D6" transform="translate(0,0)"/>
<path d="" fill="#CED1D2" transform="translate(0,0)"/>
<path d="" fill="#F5F5F8" transform="translate(0,0)"/>
<path d="" fill="#F6F7F8" transform="translate(0,0)"/>
<path d="" fill="#CECFD0" transform="translate(0,0)"/>
<path d="" fill="#CECDCD" transform="translate(0,0)"/>
<path d="" fill="#F5F5F8" transform="translate(0,0)"/>
<path d="" fill="#F6F6F7" transform="translate(0,0)"/>
<path d="" fill="#F4F6F5" transform="translate(0,0)"/>
<path d="" fill="#F6F5F6" transform="translate(0,0)"/>
<path d="" fill="#F6F5F7" transform="translate(0,0)"/>
<path d="" fill="#9B9C9C" transform="translate(0,0)"/>
<path d="" fill="#F4F4F9" transform="translate(0,0)"/>
<path d="" fill="#F4F5F6" transform="translate(0,0)"/>
<path d="" fill="#F8F7F7" transform="translate(0,0)"/>
<path d="" fill="#F8F7F7" transform="translate(0,0)"/>
<path d="" fill="#ECEBEF" transform="translate(0,0)"/>
<path d="" fill="#A4A5A6" transform="translate(0,0)"/>
<path d="" fill="#F6F7F7" transform="translate(0,0)"/>
<path d="" fill="#A3A3A2" transform="translate(0,0)"/>
<path d="" fill="#CFCED0" transform="translate(0,0)"/>
<path d="" fill="#F6F6F8" transform="translate(0,0)"/>
<path d="" fill="#A3A2A4" transform="translate(0,0)"/>
<path d="" fill="#969597" transform="translate(0,0)"/>
<path d="" fill="#CDCFCD" transform="translate(0,0)"/>
<path d="" fill="#F5F6F7" transform="translate(0,0)"/>
<path d="" fill="#8A8B8C" transform="translate(0,0)"/>
<path d="" fill="#F5F6F7" transform="translate(0,0)"/>
<path d="" fill="#F8F8F9" transform="translate(0,0)"/>
<path d="" fill="#F6F6F6" transform="translate(0,0)"/>
<path d="" fill="#D2D3D2" transform="translate(0,0)"/>
<path d="" fill="#F5F5F6" transform="translate(0,0)"/>
<path d="" fill="#CFD1CD" transform="translate(0,0)"/>
<path d="" fill="#CCCCCD" transform="translate(0,0)"/>
<path d="" fill="#CECDCD" transform="translate(0,0)"/>
<path d="" fill="#F7F7F8" transform="translate(0,0)"/>
<path d="" fill="#F2F3F5" transform="translate(0,0)"/>
<path d="" fill="#F2F4F4" transform="translate(0,0)"/>
<path d="" fill="#CBCAC9" transform="translate(0,0)"/>
<path d="" fill="#C9C9C8" transform="translate(0,0)"/>
<path d="" fill="#E0E1E1" transform="translate(0,0)"/>
<path d="" fill="#CFCFCF" transform="translate(0,0)"/>
<path d="" fill="#D0CFCD" transform="translate(0,0)"/>
<path d="" fill="#CED2D0" transform="translate(0,0)"/>
<path d="" fill="#CACDCA" transform="translate(0,0)"/>
<path d="" fill="#CECFCF" transform="translate(0,0)"/>
<path d="" fill="#CDCDCD" transform="translate(0,0)"/>
<path d="" fill="#CECDCD" transform="translate(0,0)"/>
<path d="" fill="#CBCECB" transform="translate(0,0)"/>
<path d="" fill="#CDCDCE" transform="translate(0,0)"/>
<path d="" fill="#CCCCCD" transform="translate(0,0)"/>
<path d="" fill="#C5C5C7" transform="translate(0,0)"/>
<path d="" fill="#CACCCB" transform="translate(0,0)"/>
<path d="" fill="#C9C9C9" transform="translate(0,0)"/>
<path d="" fill="#C8CCCA" transform="translate(0,0)"/>
<path d="" fill="#C6C9C7" transform="translate(0,0)"/>
<path d="" fill="#C6C6C7" transform="translate(0,0)"/>
<path d="" fill="#C6C4C5" transform="translate(0,0)"/>
<path d="" fill="#BFC0BD" transform="translate(0,0)"/>
<path d="" fill="#B1B2B0" transform="translate(0,0)"/>
<path d="" fill="#8E8E8E" transform="translate(0,0)"/>
<path d="" fill="#000000" transform="translate(0,0)"/>
</svg>
